<?xml version="1.0" encoding="iso-8859-1"?>
<!-- Uploaded to: SVG Repo, www.svgrepo.com, Generator: SVG Repo Mixer Tools -->
<svg fill="#000000" height="800px" width="800px" version="1.1" id="Layer_1" xmlns="http://www.w3.org/2000/svg" xmlns:xlink="http://www.w3.org/1999/xlink" 
	 viewBox="0 0 511.999 511.999" xml:space="preserve">
<g>
	<g>
		<path d="M482.369,300.257H29.63c-7.694,0-13.93,6.238-13.93,13.93v57.115c0,7.692,6.237,13.93,13.93,13.93h27.107l10.054,45.745
			c0.043,0.233,0.098,0.461,0.152,0.69l15.251,69.392c1.404,6.388,7.064,10.941,13.606,10.941h320.4
			c6.542,0,12.202-4.552,13.606-10.941l25.456-115.826h27.107c7.694,0,13.93-6.238,13.93-13.93v-57.115
			C496.299,306.495,490.063,300.257,482.369,300.257z M404.998,484.139H107.001l-9.184-41.791H256c7.694,0,13.93-6.238,13.93-13.93
			s-6.237-13.93-13.93-13.93H91.693l-6.429-29.254h341.472L404.998,484.139z M468.439,357.372H444.06H67.939H43.561v-29.254h424.878
			V357.372z"/>
	</g>
</g>
<g>
	<g>
		<path d="M311.443,425.7c-0.167-0.892-0.446-1.769-0.794-2.619c-0.348-0.836-0.78-1.644-1.282-2.396
			c-0.502-0.766-1.087-1.477-1.727-2.117c-0.641-0.641-1.351-1.227-2.117-1.727c-0.752-0.501-1.56-0.933-2.396-1.282
			c-0.85-0.348-1.727-0.627-2.619-0.794c-1.797-0.362-3.636-0.362-5.433,0c-0.892,0.167-1.769,0.446-2.619,0.794
			c-0.836,0.348-1.644,0.78-2.396,1.282c-0.766,0.5-1.477,1.087-2.117,1.727c-0.641,0.641-1.226,1.351-1.741,2.117
			c-0.502,0.752-0.919,1.56-1.268,2.396c-0.348,0.85-0.627,1.727-0.794,2.619c-0.181,0.893-0.279,1.812-0.279,2.716
			c0,3.664,1.491,7.258,4.082,9.849c2.591,2.591,6.171,4.08,9.849,4.08c0.905,0,1.825-0.096,2.716-0.279
			c0.892-0.166,1.769-0.444,2.619-0.793c0.836-0.348,1.644-0.781,2.396-1.282c0.766-0.501,1.477-1.087,2.117-1.727
			c2.591-2.591,4.082-6.185,4.082-9.849C311.721,427.513,311.624,426.592,311.443,425.7z"/>
	</g>
</g>
<g>
	<g>
		<path d="M269.665,263.408c-0.181-0.892-0.46-1.769-0.808-2.604c-0.348-0.848-0.78-1.656-1.282-2.409
			c-0.502-0.766-1.087-1.477-1.727-2.117c-3.232-3.232-8.052-4.724-12.565-3.803c-0.892,0.167-1.769,0.446-2.605,0.794
			c-0.85,0.348-1.658,0.78-2.41,1.282c-0.766,0.5-1.477,1.087-2.117,1.727c-0.641,0.641-1.226,1.351-1.727,2.117
			c-0.501,0.752-0.933,1.56-1.282,2.41c-0.348,0.836-0.613,1.712-0.794,2.604c-0.181,0.893-0.279,1.812-0.279,2.716
			c0,0.905,0.098,1.826,0.279,2.73c0.181,0.878,0.446,1.757,0.794,2.605c0.348,0.837,0.78,1.645,1.282,2.396
			c0.502,0.768,1.087,1.478,1.727,2.119c0.641,0.641,1.351,1.226,2.117,1.727c0.752,0.5,1.56,0.933,2.41,1.282
			c0.836,0.348,1.713,0.627,2.605,0.793c0.892,0.182,1.811,0.279,2.716,0.279c3.664,0,7.258-1.489,9.849-4.082
			c0.641-0.641,1.226-1.351,1.727-2.119c0.501-0.751,0.933-1.559,1.282-2.396c0.348-0.848,0.627-1.727,0.808-2.605
			c0.181-0.904,0.265-1.825,0.265-2.73C269.93,265.221,269.847,264.3,269.665,263.408z"/>
	</g>
</g>
<g>
	<g>
		<path d="M410.835,263.411c-0.181-0.892-0.446-1.769-0.794-2.604c-0.347-0.851-0.779-1.659-1.282-2.411
			c-0.501-0.766-1.087-1.477-1.727-2.117c-0.641-0.641-1.351-1.227-2.117-1.727c-0.752-0.502-1.56-0.933-2.41-1.282
			c-0.836-0.348-1.713-0.627-2.605-0.794c-1.797-0.362-3.636-0.362-5.433,0c-0.892,0.167-1.769,0.446-2.619,0.794
			c-0.836,0.348-1.644,0.78-2.396,1.282c-0.766,0.5-1.477,1.087-2.117,1.727c-0.641,0.641-1.226,1.351-1.727,2.117
			c-0.501,0.752-0.933,1.56-1.282,2.41c-0.348,0.836-0.627,1.712-0.808,2.604c-0.181,0.893-0.265,1.812-0.265,2.716
			c0,0.906,0.084,1.826,0.265,2.73c0.181,0.878,0.46,1.757,0.808,2.605c0.348,0.837,0.78,1.645,1.282,2.396
			c0.501,0.768,1.087,1.478,1.727,2.119c2.591,2.591,6.185,4.082,9.849,4.082c0.906,0,1.825-0.096,2.716-0.279
			c0.892-0.166,1.769-0.444,2.605-0.793c0.85-0.348,1.658-0.781,2.41-1.282c0.766-0.502,1.477-1.087,2.117-1.727
			c0.641-0.641,1.226-1.351,1.727-2.119c0.502-0.751,0.933-1.559,1.282-2.396c0.348-0.848,0.613-1.727,0.794-2.605
			c0.181-0.904,0.279-1.825,0.279-2.73C411.114,265.223,411.016,264.303,410.835,263.411z"/>
	</g>
</g>
<g>
	<g>
		<path d="M128.481,263.408c-0.181-0.892-0.46-1.769-0.808-2.604c-0.348-0.848-0.781-1.656-1.282-2.409
			c-0.501-0.766-1.087-1.477-1.727-2.117c-0.641-0.641-1.351-1.227-2.117-1.727c-0.752-0.502-1.56-0.933-2.396-1.282
			c-0.85-0.348-1.727-0.627-2.605-0.794c-1.797-0.362-3.65-0.362-5.447,0c-0.892,0.167-1.769,0.446-2.605,0.794
			c-0.85,0.348-1.658,0.78-2.41,1.282c-0.766,0.5-1.477,1.087-2.117,1.727c-0.641,0.641-1.226,1.351-1.727,2.117
			c-0.502,0.752-0.933,1.56-1.282,2.41c-0.348,0.836-0.613,1.712-0.794,2.604c-0.181,0.893-0.279,1.812-0.279,2.716
			c0,0.906,0.098,1.826,0.279,2.73c0.181,0.878,0.446,1.757,0.794,2.605c0.348,0.837,0.78,1.645,1.282,2.396
			c0.501,0.768,1.087,1.478,1.727,2.119s1.351,1.226,2.117,1.727c0.752,0.5,1.56,0.933,2.41,1.282
			c0.836,0.348,1.713,0.627,2.605,0.793c0.892,0.182,1.811,0.279,2.716,0.279c3.664,0,7.258-1.489,9.849-4.082
			c0.641-0.641,1.226-1.351,1.727-2.119c0.501-0.751,0.933-1.559,1.282-2.396c0.348-0.848,0.627-1.727,0.808-2.605
			c0.181-0.904,0.265-1.825,0.265-2.73C128.745,265.221,128.662,264.3,128.481,263.408z"/>
	</g>
</g>
<g>
	<g>
		<path d="M474.197,10.736c-4.612-2.396-10.176-2.024-14.43,0.963l-26.401,18.547L406.228,3.931
			c-5.172-5.015-13.316-5.262-18.778-0.564L356.183,30.24l-17.102-13.248c-1.287-2.631-3.371-4.855-6.067-6.255
			c-4.611-2.396-10.176-2.024-14.43,0.963l-26.401,18.547L265.043,3.931c-5.171-5.015-13.315-5.259-18.777-0.564L215,30.24
			l-17.102-13.248c-1.287-2.631-3.371-4.855-6.067-6.255C187.22,8.341,181.653,8.713,177.4,11.7l-26.401,18.547L123.86,3.931
			c-5.171-5.015-13.315-5.259-18.777-0.564L73.816,30.238L52.754,13.924c-4.203-3.254-9.889-3.834-14.663-1.493
			c-4.773,2.34-7.797,7.192-7.797,12.508v66.183c0,41.857,30.593,76.684,70.591,83.349v49.867c0,7.692,6.237,13.93,13.93,13.93
			s13.93-6.238,13.93-13.93v-49.867c23.63-3.937,43.967-17.7,56.662-36.945c12.695,19.244,33.032,33.008,56.662,36.945v49.867
			c0,7.692,6.237,13.93,13.93,13.93c7.694,0,13.93-6.238,13.93-13.93v-49.867c23.63-3.937,43.967-17.7,56.662-36.945
			c12.695,19.244,33.032,33.008,56.662,36.945v49.867c0,7.692,6.237,13.93,13.93,13.93s13.93-6.238,13.93-13.93v-49.867
			c39.998-6.663,70.591-41.492,70.591-83.349V23.097C481.706,17.9,478.811,13.133,474.197,10.736z M171.478,91.122
			c0,31.24-25.419,56.656-56.662,56.656c-31.243,0-56.661-25.416-56.661-56.656V53.348l7.588,5.879
			c5.232,4.05,12.593,3.862,17.611-0.449l30.242-25.993l26.283,25.487c4.8,4.657,12.234,5.243,17.706,1.399l13.894-9.761V91.122z
			 M312.662,91.122c0,31.24-25.419,56.656-56.662,56.656s-56.662-25.416-56.662-56.656V53.347l7.591,5.88
			c5.231,4.05,12.592,3.862,17.609-0.449l30.242-25.993l26.283,25.487c4.8,4.657,12.234,5.243,17.706,1.399l13.894-9.761V91.122z
			 M453.844,91.122c0,31.24-25.419,56.656-56.661,56.656c-31.243,0-56.662-25.416-56.662-56.656V53.347l7.589,5.88
			c5.234,4.05,12.593,3.862,17.611-0.449l30.242-25.993l26.281,25.487c4.8,4.657,12.235,5.243,17.706,1.399l13.894-9.761V91.122z"/>
	</g>
</g>
</svg>