<?xml version="1.0" encoding="UTF-8"?>
<svg version="1.1" xmlns="http://www.w3.org/2000/svg" width="225" height="225">
<path d="M0 0 C74.25 0 148.5 0 225 0 C225 74.25 225 148.5 225 225 C150.75 225 76.5 225 0 225 C0 150.75 0 76.5 0 0 Z " fill="#FEFEFE" transform="translate(0,0)"/>
<path d="M0 0 C5.47010473 3.68272402 9.693766 8.93676676 11.78125 15.19921875 C11.78125 17.83921875 11.78125 20.47921875 11.78125 23.19921875 C19.70125 23.19921875 27.62125 23.19921875 35.78125 23.19921875 C35.88293434 36.20803495 35.55892409 49.14784157 34.98168945 62.14331055 C34.84255665 65.28869686 34.71093741 68.43433782 34.58007812 71.58007812 C34.49262864 73.61069613 34.40475351 75.64129586 34.31640625 77.671875 C34.25852684 79.05959862 34.25852684 79.05959862 34.19947815 80.47535706 C33.41906611 97.70194252 33.41906611 97.70194252 28.78125 102.19921875 C25.79969203 103.68999774 23.0751501 103.35950526 19.7487793 103.39208984 C18.66311172 103.40435608 18.66311172 103.40435608 17.55551147 103.41687012 C15.15550567 103.44172288 12.75555901 103.45823981 10.35546875 103.47265625 C9.53610147 103.47797993 8.7167342 103.4833036 7.87253761 103.4887886 C3.53555868 103.51551981 -0.80139148 103.53489468 -5.13842773 103.54931641 C-9.61774328 103.56596361 -14.09632297 103.61074131 -18.5753603 103.66168785 C-22.01977888 103.69534675 -25.46402251 103.70689228 -28.90859032 103.71254349 C-30.55962942 103.71925988 -32.21065686 103.73449221 -33.86153603 103.7584343 C-36.17433217 103.79006178 -38.48514002 103.79012745 -40.7980957 103.78271484 C-42.11332718 103.7908017 -43.42855865 103.79888855 -44.78364563 103.80722046 C-49.07433627 103.04778291 -50.51433858 101.53481877 -53.21875 98.19921875 C-54.48443641 95.66784594 -54.46017242 93.71802913 -54.60766602 90.88598633 C-54.66765274 89.77334915 -54.72763947 88.66071198 -54.78944397 87.51435852 C-54.84990402 86.30305771 -54.91036407 85.0917569 -54.97265625 83.84375 C-55.03782944 82.59478439 -55.10300262 81.34581879 -55.17015076 80.05900574 C-55.30758926 77.40343589 -55.44323375 74.74784515 -55.57592773 72.09204102 C-55.71085366 69.39489269 -55.8494234 66.69797842 -55.99194336 64.0012207 C-57.4337029 36.68517676 -57.4337029 36.68517676 -57.21875 23.19921875 C-49.29875 23.19921875 -41.37875 23.19921875 -33.21875 23.19921875 C-33.21875 20.88921875 -33.21875 18.57921875 -33.21875 16.19921875 C-30.62827872 7.83000383 -25.21237093 2.14417468 -17.78125 -2.23828125 C-11.22518563 -3.67741733 -5.89193436 -3.3317486 0 0 Z " fill="#EE4E2E" transform="translate(123.21875,41.80078125)"/>
<path d="M0 0 C0.99966797 0.433125 0.99966797 0.433125 2.01953125 0.875 C1.35953125 2.195 0.69953125 3.515 0.01953125 4.875 C-4.73046875 4 -4.73046875 4 -6.98046875 2.875 C-8.93386298 2.70130168 -10.89489579 2.60803898 -12.85546875 2.5625 C-13.90476562 2.52511719 -14.9540625 2.48773438 -16.03515625 2.44921875 C-19.06792105 2.64998025 -19.06792105 2.64998025 -21.34765625 4.62890625 C-23.15447326 7.11436027 -23.43121549 8.11379895 -23.23046875 11.125 C-23.14796875 12.3625 -23.06546875 13.6 -22.98046875 14.875 C-18.7226022 17.15522802 -14.17533318 18.75323654 -9.64453125 20.40039062 C-3.78298748 22.65164887 0.46831582 25.54817686 4.01953125 30.875 C4.47629953 36.44757298 4.28468481 40.13526096 1.01953125 44.875 C-1.9385513 48.33522619 -4.69003954 49.6808092 -9.19921875 50.359375 C-16.96198721 50.6631355 -23.69430838 49.73684516 -29.98046875 44.875 C-30.47546875 43.39 -30.47546875 43.39 -30.98046875 41.875 C-29.99046875 40.885 -29.00046875 39.895 -27.98046875 38.875 C-26.30984375 39.8340625 -26.30984375 39.8340625 -24.60546875 40.8125 C-19.16179867 43.93756986 -15.28275743 44.28937066 -8.98046875 43.875 C-5.51906335 43.00399451 -5.51906335 43.00399451 -2.98046875 41.875 C-2.78473267 40.43859829 -2.59919059 39.00080496 -2.41796875 37.5625 C-2.31355469 36.76199219 -2.20914063 35.96148437 -2.1015625 35.13671875 C-1.83291697 32.70682884 -1.83291697 32.70682884 -2.98046875 29.875 C-6.27429426 27.76820946 -10.09766753 26.82607298 -13.79296875 25.625 C-19.97655803 23.45430251 -25.88199082 21.07195587 -28.98046875 14.875 C-29.4914075 10.81668646 -29.89725403 6.67923343 -28.00390625 2.953125 C-20.51996241 -6.32145571 -9.87730678 -3.97855154 0 0 Z " fill="#FDF3F0" transform="translate(125.98046875,81.125)"/>
<path d="M0 0 C4.40991114 2.16486547 7.44510336 4.80266981 10 9 C10.66 12.3 11.32 15.6 12 19 C0.78 19 -10.44 19 -22 19 C-22 12.17884131 -22 12.17884131 -19.3125 7.8125 C-18.81363281 6.97332031 -18.31476563 6.13414063 -17.80078125 5.26953125 C-13.01743772 -0.75893424 -7.19409148 -0.95215917 0 0 Z " fill="#FEF8F6" transform="translate(118,46)"/>
<path d="M0 0 C1.32 0.33 2.64 0.66 4 1 C5.35479756 0.99479924 6.70995017 0.95318207 8.0625 0.875 C12 1 12 1 14 2 C15.63102777 5.26205554 15.51981506 8.43555389 15 12 C14 14 14 14 12 15 C9.28114681 15.23059307 6.74008408 15.13475823 4 15 C3.67 17.64 3.34 20.28 3 23 C2.01 23 1.02 23 0 23 C0 15.41 0 7.82 0 0 Z " fill="#EF5E40" transform="translate(114,162)"/>
<path d="M0 0 C2 1 2 1 3 3 C3.45429103 5.76024928 3.51084843 8.2448624 3 11 C0.80287161 13.70415801 -0.55941961 13.94492745 -4 14.375 C-7.44058039 13.94492745 -8.80287161 13.70415801 -11 11 C-11.65964122 7.44238446 -11.63041883 4.26083766 -10 1 C-6.73794446 -0.63102777 -3.56444611 -0.51981506 0 0 Z " fill="#ED4E2A" transform="translate(108,163)"/>
<path d="M0 0 C2.59341352 0.07530783 3.80569388 0.16002137 6.0625 1.5 C7.0625 3.3125 7.0625 3.3125 7.0625 8.3125 C3.4325 8.3125 -0.1975 8.3125 -3.9375 8.3125 C-2.9475 9.3025 -1.9575 10.2925 -0.9375 11.3125 C2.70791845 11.07772801 2.70791845 11.07772801 6.0625 10.3125 C6.3925 11.3025 6.7225 12.2925 7.0625 13.3125 C3.84383011 14.92183494 0.5435198 14.90983476 -2.9375 14.3125 C-5.5 12.25 -5.5 12.25 -6.9375 9.3125 C-6.73458297 3.3264476 -6.40780043 0.50855559 0 0 Z " fill="#EF5F41" transform="translate(138.9375,162.6875)"/>
<path d="M0 0 C1.9375 1.1875 1.9375 1.1875 3 3 C3 4.65 3 6.3 3 8 C-0.3 8.33 -3.6 8.66 -7 9 C-7 9.66 -7 10.32 -7 11 C-1.91696314 11.11320856 -1.91696314 11.11320856 3 10 C3 10.99 3 11.98 3 13 C-0.21302262 14.60651131 -3.52465859 14.61127547 -7 14 C-9.76386182 11.5816209 -10.79835577 10.03342666 -11.5 6.4375 C-10.1909712 0.05598461 -5.88807526 -0.7493914 0 0 Z " fill="#EE5939" transform="translate(160,163)"/>
<path d="M0 0 C0.90105469 0.02707031 1.80210938 0.05414063 2.73046875 0.08203125 C3.76107422 0.13423828 3.76107422 0.13423828 4.8125 0.1875 C5.1425 1.1775 5.4725 2.1675 5.8125 3.1875 C2.5125 3.1875 -0.7875 3.1875 -4.1875 3.1875 C-4.5175 4.8375 -4.8475 6.4875 -5.1875 8.1875 C-4.57261719 8.36925781 -3.95773438 8.55101562 -3.32421875 8.73828125 C-2.51597656 8.98964844 -1.70773438 9.24101562 -0.875 9.5 C0.32576172 9.86544922 0.32576172 9.86544922 1.55078125 10.23828125 C3.96191441 11.2502076 5.21357243 12.13173598 6.8125 14.1875 C7.45097487 19.29529896 7.45097487 19.29529896 5.61328125 21.86328125 C3.18432453 23.64943381 1.60527437 23.49111459 -1.375 23.375 C-2.72658203 23.33439453 -2.72658203 23.33439453 -4.10546875 23.29296875 C-4.79253906 23.25816406 -5.47960937 23.22335938 -6.1875 23.1875 C-6.8475 21.8675 -7.5075 20.5475 -8.1875 19.1875 C-7.48882812 19.2596875 -6.79015625 19.331875 -6.0703125 19.40625 C-4.70519531 19.54546875 -4.70519531 19.54546875 -3.3125 19.6875 C-1.95511719 19.82671875 -1.95511719 19.82671875 -0.5703125 19.96875 C1.74563211 20.21797295 1.74563211 20.21797295 3.8125 20.1875 C3.8125 18.5375 3.8125 16.8875 3.8125 15.1875 C3.19761719 14.93355469 2.58273438 14.67960938 1.94921875 14.41796875 C1.14097656 14.07378906 0.33273438 13.72960937 -0.5 13.375 C-1.30050781 13.03855469 -2.10101563 12.70210937 -2.92578125 12.35546875 C-5.18746959 11.1875157 -6.59163911 10.15826155 -8.1875 8.1875 C-8.61158618 5.3602588 -8.69481102 3.88319361 -6.98828125 1.54296875 C-4.56102445 -0.28405535 -3.00134884 -0.11693567 0 0 Z " fill="#F06B50" transform="translate(70.1875,153.8125)"/>
<path d="M0 0 C0.99 0 1.98 0 3 0 C3 3.3 3 6.6 3 10 C4.60875 9.9071875 4.60875 9.9071875 6.25 9.8125 C10.23221875 10.01161094 11.3009286 10.20622434 14 13 C14.390625 15.69921875 14.390625 15.69921875 14.25 18.6875 C14.21390625 19.68136719 14.1778125 20.67523438 14.140625 21.69921875 C14.07101563 22.83810547 14.07101563 22.83810547 14 24 C13.34 24 12.68 24 12 24 C11.92652344 23.06027344 11.92652344 23.06027344 11.8515625 22.1015625 C11.77679688 21.28429687 11.70203125 20.46703125 11.625 19.625 C11.55539063 18.81289062 11.48578125 18.00078125 11.4140625 17.1640625 C11.17107412 14.79665809 11.17107412 14.79665809 9 13 C7.35 13.33 5.7 13.66 4 14 C3.67 17.63 3.34 21.26 3 25 C2.01 25 1.02 25 0 25 C0 16.75 0 8.5 0 0 Z " fill="#EF6246" transform="translate(80,153)"/>
<path d="M0 0 C2.4375 0.8125 2.4375 0.8125 4.4375 2.8125 C4.10778521 6.10964793 3.8148161 7.4351839 1.4375 9.8125 C-1.6875 9.4375 -1.6875 9.4375 -4.5625 8.8125 C-5.89091008 3.37809513 -5.89091008 3.37809513 -4.4375 0.875 C-2.5625 -0.1875 -2.5625 -0.1875 0 0 Z " fill="#FEF5F4" transform="translate(122.5625,165.1875)"/>
<path d="M0 0 C3.125 0.375 3.125 0.375 6 1 C7.32841008 6.43440487 7.32841008 6.43440487 5.875 8.9375 C4 10 4 10 1.4375 9.875 C-1 9 -1 9 -3 6 C-2.64111965 3.03923709 -2.15341979 2.15341979 0 0 Z " fill="#FDF4F3" transform="translate(102,165)"/>
<path d="M0 0 C1.77007714 -0.08114106 3.54122098 -0.13925505 5.3125 -0.1875 C6.29863281 -0.22230469 7.28476563 -0.25710937 8.30078125 -0.29296875 C11 0 11 0 12.83203125 1.2578125 C14.98918839 4.47551178 14.3603469 7.21635756 14 11 C13.01 11.66 12.02 12.32 11 13 C10.34 12.34 9.68 11.68 9 11 C9.66 10.34 10.32 9.68 11 9 C10.67958603 6.39719432 10.67958603 6.39719432 10 4 C6.52852158 3.25042843 6.52852158 3.25042843 3 3 C2.67 5.31 2.34 7.62 2 10 C0 8 0 8 -0.1953125 6.0546875 C-0.13020833 4.03645833 -0.06510417 2.01822917 0 0 Z " fill="#EE5939" transform="translate(115,163)"/>
<path d="M0 0 C0.66 0.99 1.32 1.98 2 3 C-1.3 3 -4.6 3 -8 3 C-8 4.32 -8 5.64 -8 7 C-7.34 7 -6.68 7 -6 7 C-6 7.66 -6 8.32 -6 9 C-0.91696314 9.11320856 -0.91696314 9.11320856 4 8 C4 8.99 4 9.98 4 11 C0.78697738 12.60651131 -2.52465859 12.61127547 -6 12 C-8.90799783 9.4555019 -9.90702057 8.04601863 -10.25 4.1875 C-10.1675 3.465625 -10.085 2.74375 -10 2 C-6.54207311 0.41923342 -3.8168932 -0.51579638 0 0 Z " fill="#EF5E3F" transform="translate(159,165)"/>
<path d="M0 0 C0.99 0.66 1.98 1.32 3 2 C3.39299693 5.07847595 3.64840923 7.09180467 1.80078125 9.6796875 C-0.62838115 11.46072197 -2.20984767 11.30351243 -5.1875 11.1875 C-6.08855469 11.16042969 -6.98960938 11.13335937 -7.91796875 11.10546875 C-8.60503906 11.07066406 -9.29210937 11.03585938 -10 11 C-10.66 9.68 -11.32 8.36 -12 7 C-11.30132812 7.0721875 -10.60265625 7.144375 -9.8828125 7.21875 C-8.97273438 7.3115625 -8.06265625 7.404375 -7.125 7.5 C-6.22007813 7.5928125 -5.31515625 7.685625 -4.3828125 7.78125 C-2.06686789 8.03047295 -2.06686789 8.03047295 0 8 C0 7.236875 0 6.47375 0 5.6875 C0 3.79166667 0 1.89583333 0 0 Z " fill="#ED4F2C" transform="translate(74,166)"/>
<path d="M0 0 C5.45454545 -0.36363636 5.45454545 -0.36363636 7.875 1.25 C9 3 9 3 9 7 C5.37 7 1.74 7 -2 7 C-2 6.67 -2 6.34 -2 6 C0.97 6 3.94 6 7 6 C3.91330796 2.91330796 3.08072342 2.55144911 -1 2 C-0.67 1.34 -0.34 0.68 0 0 Z " fill="#ED4D2A" transform="translate(137,163)"/>
<path d="M0 0 C2.97 0 5.94 0 9 0 C9 0.66 9 1.32 9 2 C7.02 2.33 5.04 2.66 3 3 C2.67 5.31 2.34 7.62 2 10 C0 8 0 8 -0.1953125 6.0546875 C-0.13020833 4.03645833 -0.06510417 2.01822917 0 0 Z " fill="#ED4E2B" transform="translate(115,163)"/>
<path d="M0 0 C0.90492187 0.02320313 1.80984375 0.04640625 2.7421875 0.0703125 C4.10730469 0.09738281 4.10730469 0.09738281 5.5 0.125 C6.19867188 0.14820313 6.89734375 0.17140625 7.6171875 0.1953125 C7.9471875 1.1853125 8.2771875 2.1753125 8.6171875 3.1953125 C7.58658203 3.12570313 7.58658203 3.12570313 6.53515625 3.0546875 C5.63410156 3.01859375 4.73304687 2.9825 3.8046875 2.9453125 C2.46470703 2.87570313 2.46470703 2.87570313 1.09765625 2.8046875 C-1.54955959 2.95550217 -1.54955959 2.95550217 -3.20703125 5.2109375 C-3.59503906 5.86578125 -3.98304687 6.520625 -4.3828125 7.1953125 C-4.5078125 4.8203125 -4.5078125 4.8203125 -4.3828125 2.1953125 C-2.3828125 0.1953125 -2.3828125 0.1953125 0 0 Z " fill="#EE5432" transform="translate(67.3828125,153.8046875)"/>
<path d="M0 0 C-0.50872294 2.03489175 -1.01654354 4.0545937 -1.625 6.0625 C-2.20416064 8.20541252 -2.20416064 8.20541252 -1 11 C-1.99 11.33 -2.98 11.66 -4 12 C-5 11 -5 11 -5.25 7.125 C-5.20891261 3.30387289 -5.20891261 3.30387289 -3.625 1 C-2 0 -2 0 0 0 Z " fill="#EF5E3F" transform="translate(102,163)"/>
<path d="M0 0 C2.5 -0.375 2.5 -0.375 5 0 C5.66 0.99 6.32 1.98 7 3 C4.03 3 1.06 3 -2 3 C-1.34 2.01 -0.68 1.02 0 0 Z " fill="#FCEBE7" transform="translate(154,165)"/>
<path d="M0 0 C0 0.66 0 1.32 0 2 C-2.95664519 3.4783226 -5.74229737 3.06032783 -9 3 C-8 1 -8 1 -5.0625 -0.1875 C-2 -1 -2 -1 0 0 Z " fill="#EE512D" transform="translate(146,174)"/>
<path d="M0 0 C0 0.99 0 1.98 0 3 C-2.70879335 4.35439668 -5.00933268 4.06501451 -8 4 C-8 3.34 -8 2.68 -8 2 C-2.25 0 -2.25 0 0 0 Z " fill="#EE532F" transform="translate(163,173)"/>
<path d="M0 0 C2.97 0.495 2.97 0.495 6 1 C6 1.66 6 2.32 6 3 C3.36 3 0.72 3 -2 3 C-1.34 2.01 -0.68 1.02 0 0 Z " fill="#FDF3F1" transform="translate(137,165)"/>
<path d="M0 0 C0.928125 0.0825 1.85625 0.165 2.8125 0.25 C2.8125 0.91 2.8125 1.57 2.8125 2.25 C-0.1575 2.91 -3.1275 3.57 -6.1875 4.25 C-4.36434338 1.00883268 -3.82500054 0.30000004 0 0 Z " fill="#ED4822" transform="translate(156.1875,162.75)"/>
<path d="M0 0 C0.99 0.33 1.98 0.66 3 1 C4.1875 4.5625 4.1875 4.5625 5 8 C1.125 6.125 1.125 6.125 0 5 C-0.04063832 3.33382885 -0.042721 1.66611905 0 0 Z " fill="#EF6043" transform="translate(62,157)"/>
</svg>
