<?xml version="1.0" encoding="UTF-8"?>
<svg version="1.1" xmlns="http://www.w3.org/2000/svg" width="700" height="700">
<path d="M0 0 C1.93895563 -0.00644241 3.87791032 -0.0131718 5.81686401 -0.02017212 C9.8697942 -0.03209796 13.92263947 -0.03585792 17.97558594 -0.03466797 C23.12258975 -0.03446533 28.26903807 -0.06173227 33.41591072 -0.09621239 C37.41926482 -0.11865314 41.422489 -0.12250026 45.42589951 -0.12144852 C47.32097151 -0.12378009 49.21604847 -0.1324624 51.11105728 -0.14811325 C83.78880544 -0.39269631 112.20794332 12.15017997 135.7421875 34.5859375 C161.36925468 61.15517626 169.75382062 93.94847557 169.2421875 130.0234375 C169.22708341 131.91209846 169.21340533 133.80077139 169.20117188 135.68945312 C169.16868844 140.23858641 169.11723732 144.78712242 169.0546875 149.3359375 C170.22954208 149.32594475 170.22954208 149.32594475 171.4281311 149.31575012 C178.8701203 149.25521958 186.31198733 149.20975259 193.75415993 149.18050098 C197.57872793 149.16495607 201.4030897 149.14392699 205.22753906 149.10961914 C208.92990471 149.07662067 212.63207411 149.0590009 216.33457565 149.05130577 C217.7353257 149.04583383 219.13606706 149.03515274 220.53673172 149.01874733 C241.51840758 148.78314786 260.87365285 154.37750417 276.3046875 169.0859375 C291.2861622 184.77968516 296.89961866 204.85300586 298.71412659 225.94728088 C298.84354324 227.34005781 298.97412157 228.73272718 299.10574853 230.12529695 C299.45751553 233.88023996 299.79356827 237.6364374 300.12679307 241.3930649 C300.48827236 245.43481121 300.86496765 249.47514172 301.24008274 253.51564121 C301.87266338 260.34766832 302.49698059 267.18040464 303.11580276 274.01369095 C304.01501481 283.93645889 304.93827672 293.85688789 305.86813354 303.77682495 C306.17137905 307.01478902 306.47447589 310.25276699 306.77749538 313.49075222 C306.8528642 314.29605763 306.92823301 315.10136304 307.00588573 315.93107165 C307.86781878 325.14637371 308.72149202 334.36243876 309.57420349 343.57859802 C309.65300184 344.43023576 309.73180018 345.28187349 309.81298635 346.15931842 C310.29913254 351.41413321 310.78501461 356.66897239 311.27084598 361.92381629 C311.69255387 366.48447474 312.11452729 371.04510862 312.53647041 375.60574532 C313.94371745 390.81716954 315.35043083 406.02864293 316.75530148 421.24028683 C317.11266257 425.10965435 317.47002397 428.97902184 317.82739258 432.84838867 C317.9605184 434.28980144 317.9605184 434.28980144 318.09633363 435.76033366 C319.55087902 451.50816022 321.00945414 467.25561095 322.46960371 483.00291877 C323.98294885 499.32460115 325.49286075 515.64659822 326.99935824 531.96891409 C327.83982808 541.07417808 328.68176222 550.17930121 329.52757072 559.28407097 C330.24266527 566.98187788 330.95464525 574.6799648 331.66254341 582.37843698 C332.02280036 586.29524276 332.38452068 590.21189849 332.75025749 594.12819672 C333.08515597 597.71465491 333.41578334 601.301481 333.74309666 604.88863916 C333.91766201 606.78980599 334.09671185 608.69055944 334.27595562 610.59129089 C336.27253431 632.64918838 333.94070954 654.99492917 319.91796875 673.09375 C317.71429071 675.60894274 315.43099263 677.98392169 313.0546875 680.3359375 C312.39082031 681.03332031 311.72695313 681.73070312 311.04296875 682.44921875 C306.64184954 686.76650712 301.87017507 689.7779863 296.4296875 692.5859375 C295.82761475 692.90320801 295.22554199 693.22047852 294.60522461 693.54736328 C280.8942267 700.24535559 267.36218275 700.91866874 252.42129517 700.8506012 C250.36218469 700.85593501 248.30307811 700.86300547 246.24397886 700.87164825 C240.62121952 700.8901917 234.99872507 700.88399923 229.3759551 700.87349522 C223.29810419 700.8664796 217.2203064 700.88251906 211.14247131 700.89549255 C199.93580369 700.91585147 188.72921834 700.91796147 177.52254389 700.91027609 C167.16657308 700.90318927 156.81063331 700.90315945 146.45466232 700.91013908 C145.06277887 700.91105044 143.67089541 700.9119612 142.27901196 700.91287137 C140.18128826 700.91425458 138.08356457 700.91564568 135.9858409 700.91705751 C116.496878 700.93002819 97.00792546 700.93516517 77.51896095 700.9235239 C76.78513264 700.92308593 76.05130432 700.92264796 75.29523878 700.92219672 C69.33694042 700.9185903 63.37864221 700.91475532 57.42034401 700.91090579 C34.18318055 700.89606043 10.94613466 700.90483817 -12.29101562 700.93286133 C-38.43016667 700.96432431 -64.56924816 700.97924819 -90.70841849 700.96906132 C-93.49816424 700.96802462 -96.28791001 700.96703738 -99.07765579 700.9660778 C-100.10792838 700.96570447 -100.10792838 700.96570447 -101.15901456 700.9653236 C-111.50390619 700.96189097 -121.84873617 700.97116121 -132.19361496 700.98684883 C-143.9648547 701.004659 -155.7359703 701.00422062 -167.50721286 700.98149718 C-173.50836061 700.97037662 -179.50922723 700.96714323 -185.51036263 700.98579788 C-191.01276388 701.00268159 -196.5146405 700.99614483 -202.01700826 700.97158109 C-203.99867741 700.96672327 -205.98038952 700.97014323 -207.96202247 700.98306853 C-230.42957491 701.11894299 -248.87337062 695.41187818 -265.49414062 679.78710938 C-279.4701034 665.8111466 -285.92155204 645.67162034 -286.9453125 626.3359375 C-286.91999614 623.58766743 -286.84580245 620.88586812 -286.69419861 618.14547729 C-286.64943829 617.30552243 -286.60467796 616.46556757 -286.55856127 615.60015953 C-285.69950735 600.93281259 -284.23877258 586.30031315 -282.89956033 571.67080069 C-282.4719238 566.98944342 -282.04900857 562.30765915 -281.62545776 557.62593079 C-280.7974815 548.48221769 -279.96517498 539.33890387 -279.13128132 530.19572873 C-278.45336292 522.76177232 -277.77708027 515.32766873 -277.10194206 507.89345932 C-277.00551735 506.83169716 -276.90909265 505.769935 -276.80974598 504.67599823 C-276.61381977 502.51850453 -276.41789778 500.36101045 -276.22197997 498.20351599 C-274.38923909 478.02292571 -272.55161283 457.84278263 -270.71224003 437.66279589 C-269.13613149 420.36992915 -267.5640215 403.07670276 -265.99487305 385.78320312 C-264.16905831 365.66103099 -262.34091589 345.53907265 -260.50897259 325.41745746 C-260.31347892 323.27014555 -260.11798762 321.12283343 -259.9224987 318.97552109 C-259.82633126 317.91920836 -259.73016381 316.86289563 -259.6310822 315.77457342 C-258.9554443 308.35159434 -258.28144051 300.92846794 -257.60806465 293.50528336 C-256.78716294 284.45637059 -255.96365243 275.40769966 -255.13685936 266.35932322 C-254.71557315 261.74810434 -254.2954125 257.13679065 -253.87840462 252.52518272 C-253.49595471 248.29612597 -253.11012187 244.0673914 -252.72169601 239.83887945 C-252.58248792 238.31714473 -252.44446681 236.7953008 -252.30781896 235.27333404 C-249.79847015 207.35271249 -244.84761286 184.6585945 -222.77734375 165.50390625 C-206.55677582 153.08678183 -189.24598966 148.97990481 -169.08984375 149.140625 C-167.69309189 149.14436512 -166.29633736 149.14720735 -164.89958191 149.14920044 C-161.26151001 149.15675842 -157.6236033 149.17633734 -153.9855957 149.1986084 C-150.25799797 149.21923784 -146.530373 149.22823834 -142.80273438 149.23828125 C-135.51685259 149.25959248 -128.23110588 149.29363094 -120.9453125 149.3359375 C-120.96887817 147.62216919 -120.96887817 147.62216919 -120.99291992 145.8737793 C-121.04821176 141.53677744 -121.08201396 137.19980487 -121.11010742 132.86254883 C-121.12497253 131.00377118 -121.14527055 129.14502712 -121.17163086 127.28637695 C-121.67418918 90.87553386 -111.66606833 59.82193896 -85.9453125 33.3359375 C-70.99457233 18.33883844 -51.62225063 7.24975103 -30.9453125 2.3359375 C-30.27564453 2.17003113 -29.60597656 2.00412476 -28.91601562 1.83319092 C-19.35368122 -0.23360782 -9.73215596 0.00765033 0 0 Z M-33.9453125 49.3359375 C-34.52667969 49.77164063 -35.10804688 50.20734375 -35.70703125 50.65625 C-52.17311414 63.47599752 -61.60443055 85.2906458 -64.9453125 105.3359375 C-64.9453125 119.8559375 -64.9453125 134.3759375 -64.9453125 149.3359375 C-6.2053125 149.3359375 52.5346875 149.3359375 113.0546875 149.3359375 C113.06815584 95.45999221 113.06815584 95.45999221 85.9921875 52.7109375 C68.60659902 35.9306968 45.06580352 27.77362221 21.11547852 27.98217773 C0.58051204 28.56615968 -18.21822426 36.28516064 -33.9453125 49.3359375 Z " fill="#000000" transform="translate(325.9453125,-0.3359375)"/>
<path d="M0 0 C19.47 0 38.94 0 59 0 C60.65 7.26 62.3 14.52 64 22 C67.6617448 35.00550741 73.45485885 46.70590294 82.3359375 56.94921875 C84 59 84 59 84.9765625 61.14453125 C86.29292728 63.53107045 87.54922074 63.88155346 90 65 C91.47871438 66.2045707 92.93509426 67.43679689 94.375 68.6875 C102.8063963 75.48185147 112.21377667 79.70282067 122.5 82.8125 C123.45821655 83.10483521 123.45821655 83.10483521 124.43579102 83.40307617 C131.28331064 85.32811917 137.79448749 85.97064107 145 87 C145 107.46 145 127.92 145 149 C133.09270361 149 123.29401845 148.57903123 112 146 C110.99380615 145.77449463 110.99380615 145.77449463 109.96728516 145.54443359 C94.46424726 141.91814613 79.51060342 134.91207029 66.15576172 126.31787109 C65.18452362 125.69447845 64.21328552 125.07108582 63.21261597 124.42880249 C62.4824527 123.95729767 61.75228943 123.48579285 61 123 C61.00368717 123.6918574 61.00737434 124.38371481 61.01117325 125.09653759 C61.09999056 142.02793736 61.16593422 158.95926214 61.20724869 175.89084148 C61.22776545 184.07925028 61.25567424 192.26750241 61.30175781 200.45581055 C61.34196281 207.60307284 61.3675116 214.75022154 61.37635398 221.8975938 C61.38151261 225.67274969 61.3934014 229.44758094 61.42292023 233.22263145 C61.71679464 272.38464796 53.62932836 305.79749178 25.5546875 334.5 C23.43637085 336.4436884 21.27234359 338.23973384 19 340 C18.1853125 340.6496875 17.370625 341.299375 16.53125 341.96875 C-7.68206368 360.4848134 -36.55317638 368.10008106 -66.77539062 364.68652344 C-87.38129966 361.64158374 -106.28317942 352.57608122 -122 339 C-122.78890625 338.34386719 -123.5778125 337.68773437 -124.390625 337.01171875 C-128.545157 333.50360869 -128.545157 333.50360869 -130 332 C-130 331.34 -130 330.68 -130 330 C-130.99 329.67 -131.98 329.34 -133 329 C-134.31518555 327.65576172 -134.31518555 327.65576172 -135.63671875 325.9296875 C-136.12760986 325.28870117 -136.61850098 324.64771484 -137.12426758 323.98730469 C-147.80479364 309.5553335 -154.78184035 295.20464353 -160 278 C-160.36351562 276.80375 -160.72703125 275.6075 -161.1015625 274.375 C-165.66717983 255.94185339 -164.48161457 235.07986925 -159 217 C-158.72712158 216.02981934 -158.72712158 216.02981934 -158.44873047 215.04003906 C-149.7921628 184.32817699 -127.89334794 160.6181123 -100.59375 145.05859375 C-85.92907793 137.27219104 -71.06338986 133.81137622 -54.5 133.875 C-53.49324219 133.87113281 -52.48648438 133.86726562 -51.44921875 133.86328125 C-50.46566406 133.86457031 -49.48210937 133.86585938 -48.46875 133.8671875 C-47.14520508 133.86887939 -47.14520508 133.86887939 -45.79492188 133.87060547 C-42.51183213 134.02260036 -39.25357421 134.53520368 -36 135 C-36 155.13 -36 175.26 -36 196 C-46.395 196.99 -46.395 196.99 -57 198 C-70.1614099 200.58308045 -82.59942339 205.71474118 -91.04296875 216.64453125 C-100.60933408 231.22864897 -103.18208438 245.54612942 -100.38671875 262.78125 C-97.10390037 274.69773612 -89.56393764 286.18841151 -79.05859375 292.87109375 C-66.09008144 300.23573888 -53.12391542 303.42466875 -38.3125 299.875 C-25.26002593 295.74107859 -13.91649842 287.73364161 -7.24609375 275.62109375 C-3.72081019 268.20584212 -0.88961097 260.65601426 -0.8613348 252.37109661 C-0.85586036 251.46590871 -0.85038591 250.5607208 -0.84474558 249.62810296 C-0.84376747 248.64269345 -0.84278936 247.65728395 -0.84178162 246.64201355 C-0.83684364 245.58826847 -0.83190566 244.53452339 -0.82681805 243.44884664 C-0.81144199 239.91275807 -0.80308208 236.37668767 -0.79467773 232.84057617 C-0.7850993 230.30784953 -0.77508924 227.77512448 -0.76467896 225.24240112 C-0.74322808 219.78693871 -0.72478453 214.33147927 -0.70907402 208.87599754 C-0.68635412 200.98830501 -0.65821424 193.10063912 -0.62875474 185.21296922 C-0.58110482 172.41551014 -0.53783359 159.61804014 -0.49731445 146.82055664 C-0.4579463 134.38955843 -0.41651691 121.9585699 -0.37231445 109.52758789 C-0.36822804 108.37807152 -0.36822804 108.37807152 -0.36405908 107.2053326 C-0.35037939 103.36077934 -0.33665916 99.51622622 -0.32291877 95.67167318 C-0.20899483 63.78113447 -0.10298285 31.89057638 0 0 Z " fill="#FDFDFD" transform="translate(358,255)"/>
<path d="M0 0 C4.30091146 -0.0754071 8.60145026 -0.12917959 12.90283203 -0.16479492 C14.3592806 -0.17967624 15.81568608 -0.19998796 17.27197266 -0.22631836 C38.64966241 -0.60253029 58.38079316 4.62391312 74.25 19.75 C89.2314747 35.44374766 94.84493116 55.51706836 96.65943909 76.61134338 C96.78885574 78.00412031 96.91943407 79.39678968 97.05106103 80.78935945 C97.40282803 84.54430246 97.73888077 88.3004999 98.07210557 92.0571274 C98.43358486 96.09887371 98.81028015 100.13920422 99.18539524 104.17970371 C99.81797588 111.01173082 100.44229309 117.84446714 101.06111526 124.67775345 C101.96032731 134.60052139 102.88358922 144.52095039 103.81344604 154.44088745 C104.11669155 157.67885152 104.41978839 160.91682949 104.72280788 164.15481472 C104.7981767 164.96012013 104.87354551 165.76542554 104.95119823 166.59513415 C105.81313128 175.81043621 106.66680452 185.02650126 107.51951599 194.24266052 C107.59831434 195.09429826 107.67711268 195.94593599 107.75829885 196.82338092 C108.24444504 202.07819571 108.73032711 207.33303489 109.21615848 212.58787879 C109.63786637 217.14853724 110.05983979 221.70917112 110.48178291 226.26980782 C111.88902995 241.48123204 113.29574333 256.69270543 114.70061398 271.90434933 C115.05797507 275.77371685 115.41533647 279.64308434 115.77270508 283.51245117 C115.86145563 284.47339302 115.95020617 285.43433487 116.04164613 286.42439616 C117.49619152 302.17222272 118.95476664 317.91967345 120.41491621 333.66698127 C121.92826135 349.98866365 123.43817325 366.31066072 124.94467074 382.63297659 C125.78514058 391.73824058 126.62707472 400.84336371 127.47288322 409.94813347 C128.18797777 417.64594038 128.89995775 425.3440273 129.60785591 433.04249948 C129.96811286 436.95930526 130.32983318 440.87596099 130.69556999 444.79225922 C131.03046847 448.37871741 131.36109584 451.9655435 131.68840916 455.55270166 C131.86297451 457.45386849 132.04202435 459.35462194 132.22126812 461.25535339 C134.21784681 483.31325088 131.88602204 505.65899167 117.86328125 523.7578125 C115.65960321 526.27300524 113.37630513 528.64798419 111 531 C110.00419922 532.04607422 110.00419922 532.04607422 108.98828125 533.11328125 C104.58716204 537.43056962 99.81548757 540.4420488 94.375 543.25 C93.47189087 543.72590576 93.47189087 543.72590576 92.55053711 544.21142578 C79.64948913 550.51374751 67.13039745 551.56941676 53.0625 551.25 C51.49286182 551.22986603 49.92319814 551.21162767 48.35351562 551.1953125 C44.56836134 551.15194952 40.78447672 551.08332322 37 551 C37 550.67 37 550.34 37 550 C37.82242188 549.81824219 38.64484375 549.63648438 39.4921875 549.44921875 C58.28404661 545.21779551 75.40893895 539.17796307 86.9765625 522.62890625 C88.05487982 520.97121185 88.05487982 520.97121185 89 519 C89.66 519 90.32 519 91 519 C91.268125 518.16210938 91.53625 517.32421875 91.8125 516.4609375 C93.29313219 512.14567395 95.02655823 507.94776699 96.7890625 503.7421875 C99.98263457 495.93567799 101.36504575 488.88036495 101.3125 480.4375 C101.30831055 479.46699707 101.30412109 478.49649414 101.29980469 477.49658203 C100.94961374 452.99439206 98.15932572 428.49580242 95.41333008 404.16821289 C94.24633876 393.7572884 93.38944848 383.35574163 92.71850586 372.8996582 C92.20920647 365.2310965 91.43520451 357.62772583 90.5 350 C89.42545392 341.23577485 88.6277316 332.49905696 88.0625 323.6875 C87.34647982 312.5829063 86.24490802 301.5545913 85 290.5 C83.62717909 278.30956194 82.504243 266.14761863 81.71875 253.90234375 C81.20924098 246.23289224 80.43531469 238.62862446 79.5 231 C78.42545392 222.23577485 77.6277316 213.49905696 77.0625 204.6875 C76.34647849 193.5828857 75.24461002 182.55463438 74 171.5 C72.65815489 159.57402008 71.54904676 147.68007613 70.79125977 135.69995117 C70.02322135 124.16936796 68.73485526 112.70206674 67.40820312 101.22460938 C66.48149872 93.11239606 65.73126411 85.03212651 65.35020447 76.87397766 C64.43652341 58.14853621 59.10721633 39.66469574 47 25 C46.23429688 24.01902344 45.46859375 23.03804687 44.6796875 22.02734375 C38.18183942 14.27854691 28.47501064 9.11594309 19 6 C17.87851562 5.59007812 17.87851562 5.59007812 16.734375 5.171875 C11.25423853 3.21742074 5.72275075 2.01551944 0 1 C0 0.67 0 0.34 0 0 Z " fill="#FC244F" transform="translate(528,149)"/>
<path d="M0 0 C1.3951758 0.01005941 2.7903587 0.01917998 4.18554688 0.02734375 C7.5613837 0.05070594 10.93684618 0.08346332 14.3125 0.125 C11.4333755 1.62271688 9.08661483 2.44465523 5.875 2.9375 C-12.71184994 6.49086837 -28.42000485 17.41595081 -39.80859375 32.34765625 C-52.46467418 51.05550071 -53.60039211 71.65790256 -55.31484577 93.51707974 C-55.61653771 97.31969881 -55.93462162 101.12094026 -56.25226784 104.92225456 C-56.38413453 106.50177921 -56.51599558 108.08130432 -56.64785111 109.6608299 C-56.71397627 110.45254199 -56.78010143 111.24425407 -56.84823038 112.05995743 C-57.05118236 114.49719791 -57.25244652 116.93457276 -57.45330036 119.37198699 C-58.83456618 136.1025096 -60.3587974 152.81919669 -61.90016529 169.53561106 C-62.2755645 173.6105976 -62.64913222 177.68575202 -63.02285194 181.76089287 C-63.56185626 187.63659345 -64.10143571 193.51224069 -64.64175061 199.38782089 C-65.70716834 210.97372832 -66.76827157 222.56002786 -67.82803345 234.14645386 C-67.99751504 235.99919148 -68.16699835 237.85192895 -68.33648336 239.70466626 C-68.5926537 242.50506824 -68.84881963 245.30547063 -69.10497444 248.10587404 C-70.05542374 258.49656324 -71.00621005 268.88722155 -71.95751953 279.27783203 C-72.04384497 280.2207314 -72.1301704 281.16363077 -72.21911176 282.13510285 C-73.63091353 297.55384641 -75.04793634 312.97210663 -76.46647529 328.39023162 C-77.93749979 344.38047572 -79.40192499 360.37131505 -80.86053336 376.36269653 C-81.75343432 386.14949319 -82.65148386 395.9357882 -83.55648418 405.72147356 C-84.17341575 412.39742336 -84.78398447 419.07393638 -85.38967292 425.75091554 C-85.73775349 429.58597201 -86.08851289 433.42072931 -86.44698715 437.25482941 C-89.24560352 467.22863958 -91.64213951 493.90291071 -75.140625 520.6640625 C-73.6875 523.125 -73.6875 523.125 -72.6875 526.125 C-72.0275 526.125 -71.3675 526.125 -70.6875 526.125 C-69.73004721 527.2369784 -68.82266762 528.3921624 -67.9375 529.5625 C-57.38100556 541.94438827 -41.98221248 546.60161074 -26.6875 550.125 C-26.6875 550.455 -26.6875 550.785 -26.6875 551.125 C-60.78470959 552.17528842 -60.78470959 552.17528842 -74.6875 546.125 C-75.6775 545.7021875 -76.6675 545.279375 -77.6875 544.84375 C-95.19529935 536.28880259 -106.97805071 520.96205572 -113.875 503.0390625 C-117.60977778 491.91711398 -119.08313702 480.62520854 -118.43638611 468.93453979 C-118.39162579 468.09458493 -118.34686546 467.25463007 -118.30074877 466.38922203 C-117.44169485 451.72187509 -115.98096008 437.08937565 -114.64174783 422.45986319 C-114.2141113 417.77850592 -113.79119607 413.09672165 -113.36764526 408.41499329 C-112.539669 399.27128019 -111.70736248 390.12796637 -110.87346882 380.98479123 C-110.19555042 373.55083482 -109.51926777 366.11673123 -108.84412956 358.68252182 C-108.74770485 357.62075966 -108.65128015 356.5589975 -108.55193348 355.46506073 C-108.35600727 353.30756703 -108.16008528 351.15007295 -107.96416747 348.99257849 C-106.13142659 328.81198821 -104.29380033 308.63184513 -102.45442753 288.45185839 C-100.87831899 271.15899165 -99.306209 253.86576526 -97.73706055 236.57226562 C-95.91124581 216.45009349 -94.08310339 196.32813515 -92.25116009 176.20651996 C-92.05566642 174.05920805 -91.86017512 171.91189593 -91.6646862 169.76458359 C-91.56851876 168.70827086 -91.47235131 167.65195813 -91.3732697 166.56363592 C-90.6976318 159.14065684 -90.02362801 151.71753044 -89.35025215 144.29434586 C-88.52935044 135.24543309 -87.70583993 126.19676216 -86.87904686 117.14838572 C-86.45776065 112.53716684 -86.0376 107.92585315 -85.62059212 103.31424522 C-85.23814221 99.08518847 -84.85230937 94.8564539 -84.46388351 90.62794195 C-84.32467542 89.10620723 -84.18665431 87.5843633 -84.05000646 86.06239654 C-81.54065765 58.14177499 -76.58980036 35.447657 -54.51953125 16.29296875 C-37.99119745 3.64024425 -20.51799356 -0.26024977 0 0 Z " fill="#16F6EE" transform="translate(157.6875,148.875)"/>
<path d="M0 0 C33.78828725 -0.83261821 33.78828725 -0.83261821 48 4 C49.09054687 4.350625 50.18109375 4.70125 51.3046875 5.0625 C80.68829174 15.40782765 105.64008227 36.67045658 119.28271484 64.81396484 C128.52041816 84.84585462 131.5350713 104.96376079 131.28125 126.89550781 C131.24930529 129.6856789 131.24018417 132.47528684 131.234375 135.265625 C131.2252321 137.04427784 131.21486518 138.82292491 131.203125 140.6015625 C131.19887512 141.43362213 131.19462524 142.26568176 131.19024658 143.12295532 C131.11738298 148.88261702 131.11738298 148.88261702 130 150 C128.00035018 150.08758003 125.9976389 150.10696576 123.99609375 150.09765625 C122.78115234 150.09443359 121.56621094 150.09121094 120.31445312 150.08789062 C119.03505859 150.07951172 117.75566406 150.07113281 116.4375 150.0625 C115.15423828 150.05798828 113.87097656 150.05347656 112.54882812 150.04882812 C109.36583978 150.03699545 106.18294238 150.02051068 103 150 C102.99589111 148.7718457 102.99178223 147.54369141 102.98754883 146.27832031 C102.9653881 141.61841706 102.91073289 136.95931491 102.84741211 132.29980469 C102.82454818 130.30248836 102.80991262 128.30505689 102.80444336 126.30761719 C102.7468544 108.71197655 100.43722485 92.11904652 93 76 C92.69449219 75.28457031 92.38898438 74.56914063 92.07421875 73.83203125 C91.0866539 71.53584137 90.05258815 69.26711294 89 67 C88.56945312 66.0615625 88.13890625 65.123125 87.6953125 64.15625 C75.71138063 39.02238208 53.00471754 17.93516375 26.703125 8.3671875 C25.22160762 7.86134363 23.73712775 7.36410409 22.25 6.875 C21.47084229 6.61493164 20.69168457 6.35486328 19.88891602 6.08691406 C14.34261119 4.29243728 8.89289066 3.09053884 3.08984375 2.421875 C2.40019531 2.28265625 1.71054687 2.1434375 1 2 C0.67 1.34 0.34 0.68 0 0 Z " fill="#FC244F" transform="translate(364,0)"/>
<path d="M0 0 C1.3951758 0.01005941 2.7903587 0.01917998 4.18554688 0.02734375 C7.5613837 0.05070594 10.93684618 0.08346332 14.3125 0.125 C13.9825 0.785 13.6525 1.445 13.3125 2.125 C11.56933594 2.63989258 11.56933594 2.63989258 9.296875 3.01953125 C8.46430176 3.16745117 7.63172852 3.31537109 6.77392578 3.46777344 C5.87915527 3.6227832 4.98438477 3.77779297 4.0625 3.9375 C-15.11417937 7.55113624 -30.58423508 15.97765979 -45.6875 28.125 C-46.46609375 28.73730469 -47.2446875 29.34960938 -48.046875 29.98046875 C-70.12652745 48.3410308 -84.17148662 78.7123308 -87.48571777 106.91711426 C-87.84951008 110.89770198 -87.92586926 114.88018346 -88.00390625 118.875 C-88.02468735 119.77371826 -88.04546844 120.67243652 -88.06687927 121.59838867 C-88.13173053 124.44052236 -88.19095696 127.28274033 -88.25 130.125 C-88.29324665 132.06381044 -88.33686279 134.00261268 -88.38085938 135.94140625 C-88.48734487 140.66918671 -88.58878947 145.39705107 -88.6875 150.125 C-93.16665328 150.15386338 -97.64578291 150.17175187 -102.125 150.1875 C-103.40439453 150.19587891 -104.68378906 150.20425781 -106.00195312 150.21289062 C-107.21689453 150.21611328 -108.43183594 150.21933594 -109.68359375 150.22265625 C-111.37246704 150.23051147 -111.37246704 150.23051147 -113.09545898 150.23852539 C-115.6875 150.125 -115.6875 150.125 -116.6875 149.125 C-116.81402702 146.31725035 -116.87627706 143.53566431 -116.890625 140.7265625 C-116.89917511 139.43122086 -116.89917511 139.43122086 -116.90789795 138.10971069 C-116.91737933 136.26521027 -116.92389429 134.42069267 -116.92773438 132.57617188 C-116.93724469 129.82388736 -116.96814927 127.07241498 -117 124.3203125 C-117.21419472 89.02241793 -106.50878594 58.68477048 -81.6875 33.125 C-59.7222283 11.09161893 -30.96240761 -0.39272648 0 0 Z " fill="#16F6EE" transform="translate(321.6875,-0.125)"/>
<path d="M0 0 C9.24 0 18.48 0 28 0 C28.09197424 6.15716454 28.17156995 12.31193339 28.21972656 18.46923828 C28.23980659 20.56241953 28.2670764 22.65554492 28.30175781 24.74853516 C28.35043434 27.76218469 28.37300512 30.77509073 28.390625 33.7890625 C28.41127014 34.72054108 28.43191528 35.65201965 28.45318604 36.61172485 C28.455595 43.63200443 26.60576791 47.17088055 21.8125 52.375 C17.82333283 54.67985214 14.50113971 54.77139674 10 54 C4.90999301 51.59905331 2.03869585 48.19604248 0 43 C-0.51282772 39.62292216 -0.46844655 36.31944257 -0.390625 32.91015625 C-0.38496521 31.96563095 -0.37930542 31.02110565 -0.37347412 30.04795837 C-0.35121071 27.05227444 -0.30103331 24.05781805 -0.25 21.0625 C-0.22992202 19.02280382 -0.21167353 16.98308876 -0.1953125 14.94335938 C-0.15479225 9.9613944 -0.07648364 4.98205953 0 0 Z " fill="#F8F8F8" transform="translate(439,150)"/>
<path d="M0 0 C8.91 0 17.82 0 27 0 C27.09204454 6.1388594 27.17161904 12.2753059 27.21972656 18.41430664 C27.23978913 20.50065239 27.2670459 22.58694227 27.30175781 24.6730957 C27.35051159 27.67933978 27.37302267 30.68483769 27.390625 33.69140625 C27.41127014 34.61772354 27.43191528 35.54404083 27.45318604 36.49842834 C27.45525841 42.53728638 26.55584522 46.0708935 23 51 C19.1080427 53.74206083 15.63248082 54.54823533 10.95703125 54.3515625 C6.74470449 53.59485709 4.00530544 51.21806062 1.3503418 48.0012207 C-0.64261477 43.57174772 -0.37051966 39.46868552 -0.29296875 34.66796875 C-0.28872391 33.67622147 -0.28447906 32.68447418 -0.28010559 31.66267395 C-0.26335123 28.50400315 -0.22570448 25.34597703 -0.1875 22.1875 C-0.17244899 20.04232694 -0.15876132 17.89714385 -0.14648438 15.75195312 C-0.11601379 10.50085562 -0.05728524 5.251147 0 0 Z " fill="#FBFBFB" transform="translate(233,150)"/>
</svg>
