<?xml version="1.0" encoding="UTF-8"?>
<svg version="1.1" xmlns="http://www.w3.org/2000/svg" width="225" height="225">
<path d="M0 0 C74.25 0 148.5 0 225 0 C225 74.25 225 148.5 225 225 C150.75 225 76.5 225 0 225 C0 150.75 0 76.5 0 0 Z " fill="#FEFEFE" transform="translate(0,0)"/>
<path d="M0 0 C4.64930203 2.89289904 7.7909345 7.01260982 10 12 C10.495 15.465 10.495 15.465 11 19 C20.24 19 29.48 19 39 19 C39.09081214 27.78921833 39.16400825 36.57811882 39.20724869 45.36770248 C39.22801478 49.45022942 39.25612795 53.53241534 39.30175781 57.61474609 C39.34561226 61.56350242 39.36921937 65.51193331 39.37950897 69.46091461 C39.38683008 70.95823531 39.40112391 72.45554069 39.42292023 73.95272064 C39.59577249 86.33207114 38.23463277 97.28395655 29.98828125 107.03125 C23.47002604 113.4854752 15.23588068 118.31820084 5.92955112 118.37328625 C5.18653216 118.36249192 4.4435132 118.3516976 3.67797852 118.34057617 C2.45751406 118.34111858 2.45751406 118.34111858 1.21239376 118.34167194 C-1.39902659 118.33944803 -4.00978962 118.31667342 -6.62109375 118.29296875 C-8.24222505 118.28855316 -9.86336063 118.28549554 -11.48449707 118.28381348 C-17.46889697 118.26813975 -23.45320507 118.22625587 -29.4375 118.1875 C-42.823125 118.125625 -56.20875 118.06375 -70 118 C-70 85.33 -70 52.66 -70 19 C-60.76 19 -51.52 19 -42 19 C-41.34 16.03 -40.68 13.06 -40 10 C-30.52369543 -4.72562681 -15.44531248 -8.34568479 0 0 Z " fill="#5FB754" transform="translate(128,29)"/>
<path d="M0 0 C4.64930203 2.89289904 7.7909345 7.01260982 10 12 C10.495 15.465 10.495 15.465 11 19 C20.24 19 29.48 19 39 19 C39.09081214 27.78921833 39.16400825 36.57811882 39.20724869 45.36770248 C39.22801478 49.45022942 39.25612795 53.53241534 39.30175781 57.61474609 C39.34561226 61.56350242 39.36921937 65.51193331 39.37950897 69.46091461 C39.38683008 70.95823531 39.40112391 72.45554069 39.42292023 73.95272064 C39.59577249 86.33207114 38.23463277 97.28395655 29.98828125 107.03125 C23.47002604 113.4854752 15.23588068 118.31820084 5.92955112 118.37328625 C5.18653216 118.36249192 4.4435132 118.3516976 3.67797852 118.34057617 C2.45751406 118.34111858 2.45751406 118.34111858 1.21239376 118.34167194 C-1.39902659 118.33944803 -4.00978962 118.31667342 -6.62109375 118.29296875 C-8.24222505 118.28855316 -9.86336063 118.28549554 -11.48449707 118.28381348 C-17.46889697 118.26813975 -23.45320507 118.22625587 -29.4375 118.1875 C-42.823125 118.125625 -56.20875 118.06375 -70 118 C-70 85.33 -70 52.66 -70 19 C-60.76 19 -51.52 19 -42 19 C-41.34 16.03 -40.68 13.06 -40 10 C-30.52369543 -4.72562681 -15.44531248 -8.34568479 0 0 Z M-66 23 C-66 53.36 -66 83.72 -66 115 C-53.83125 115.0825 -41.6625 115.165 -29.125 115.25 C-25.3005127 115.28641602 -21.47602539 115.32283203 -17.53564453 115.36035156 C-14.06969404 115.37373961 -14.06969404 115.37373961 -10.60372925 115.3817749 C-9.07495448 115.38786689 -7.54619742 115.40182952 -6.01754761 115.42230225 C9.24331149 115.67656912 9.24331149 115.67656912 22.125 108.25 C23.053125 107.13625 23.053125 107.13625 24 106 C23.59007812 105.38511719 23.18015625 104.77023438 22.7578125 104.13671875 C20.50520833 100.7578125 18.25260417 97.37890625 16 94 C15.34 94 14.68 94 14 94 C14 93.34 14 92.68 14 92 C12.44144019 90.64287834 12.44144019 90.64287834 10.5 89.375 C9.52546875 88.70597656 9.52546875 88.70597656 8.53125 88.0234375 C8.0259375 87.68570313 7.520625 87.34796875 7 87 C10.465 86.505 10.465 86.505 14 86 C14 85.67 14 85.34 14 85 C11.69 84.67 9.38 84.34 7 84 C7.6290625 83.85304687 8.258125 83.70609375 8.90625 83.5546875 C16.27507142 81.62370116 22.0954485 79.09181343 26.60546875 72.73828125 C29.85551502 66.93917909 31.27240617 61.59337745 30 55 C27.22297453 46.77522121 21.52449506 42.76224753 14 39 C6.98719347 38.23417089 0.99370093 38.43091882 -5.02734375 42.33203125 C-11.35167182 47.67953241 -13.63421486 53.74876024 -14.67578125 61.8125 C-15 64 -15 64 -16 65 C-16.07476562 64.23816406 -16.14953125 63.47632813 -16.2265625 62.69140625 C-17.30234312 54.24336434 -19.32321441 47.94516962 -25.97265625 42.3359375 C-31.98644753 38.42861032 -37.99671506 37.98724665 -45 39 C-52.20534506 41.0517733 -56.6390154 46.02925316 -60.375 52.3125 C-62.15294218 59.95765137 -61.30314608 65.93083129 -57.49609375 72.80078125 C-54.58595439 77.07861012 -50.81453908 80.06092574 -46 82 C-43.59162245 82.28878735 -41.17189532 82.49045026 -38.75 82.625 C-37.48671875 82.69976562 -36.2234375 82.77453125 -34.921875 82.8515625 C-33.95765625 82.90054688 -32.9934375 82.94953125 -32 83 C-32 83.66 -32 84.32 -32 85 C-48.01148325 85.80956938 -48.01148325 85.80956938 -54 81 C-59.85191876 75.42729804 -63.16931719 70.61259533 -63.48168945 62.32714844 C-63.55166052 54.38963019 -62.70053579 48.89055365 -57 43 C-51.73586102 37.87083894 -46.41136433 35.83340912 -39.1875 35.5 C-32.2969083 35.68996619 -26.40593529 37.72506222 -21.375 42.5625 C-20.17970767 43.98546706 -19.08326164 45.48999893 -18 47 C-17.01546424 48.01522872 -16.01868662 49.01904252 -15 50 C-14.88391274 46.72946483 -14.81279289 43.4594582 -14.75 40.1875 C-14.71648437 39.25873047 -14.68296875 38.32996094 -14.6484375 37.37304688 C-14.63554688 36.48037109 -14.62265625 35.58769531 -14.609375 34.66796875 C-14.58842773 33.84578857 -14.56748047 33.0236084 -14.54589844 32.17651367 C-14.81430868 29.83199354 -14.81430868 29.83199354 -16.89013672 28.26538086 C-19.03280607 26.98032471 -20.99753366 26.13412083 -23.375 25.375 C-24.10460937 25.13523437 -24.83421875 24.89546875 -25.5859375 24.6484375 C-38.9714957 21.05296394 -51.5455149 23 -66 23 Z " fill="#4A4C4A" transform="translate(128,29)"/>
<path d="M0 0 C0.76695694 0.0028299 1.53391388 0.00565979 2.32411194 0.00857544 C4.74879246 0.01967775 7.17308934 0.04476283 9.59765625 0.0703125 C11.25194775 0.0803552 12.9062451 0.08947878 14.56054688 0.09765625 C18.59389548 0.11958433 22.62696105 0.15404407 26.66015625 0.1953125 C26.75324283 8.62787995 26.82411548 17.06022917 26.86740494 25.49318504 C26.88819217 29.40986789 26.91634497 33.32619665 26.96191406 37.24267578 C27.0056919 41.02932796 27.02935985 44.81564171 27.03966522 48.60252762 C27.04699984 50.04009954 27.06132124 51.47765501 27.08307648 52.91508102 C27.2350877 63.3846767 26.24445128 72.4327686 19.41015625 80.8203125 C18.62898438 81.79871094 18.62898438 81.79871094 17.83203125 82.796875 C17.25195312 83.48910156 17.25195312 83.48910156 16.66015625 84.1953125 C14.36010671 81.99196174 12.39457302 79.67164082 10.47265625 77.1328125 C9.94285156 76.44058594 9.41304688 75.74835938 8.8671875 75.03515625 C7.66015625 73.1953125 7.66015625 73.1953125 7.66015625 71.1953125 C7.00015625 71.1953125 6.34015625 71.1953125 5.66015625 71.1953125 C5.66015625 70.5353125 5.66015625 69.8753125 5.66015625 69.1953125 C5.10328125 68.9478125 4.54640625 68.7003125 3.97265625 68.4453125 C1.26044498 66.97925235 -0.9757174 65.16541779 -3.33984375 63.1953125 C-2.67984375 62.8653125 -2.01984375 62.5353125 -1.33984375 62.1953125 C-1.66984375 61.5353125 -1.99984375 60.8753125 -2.33984375 60.1953125 C-1.63859375 60.04835937 -0.93734375 59.90140625 -0.21484375 59.75 C7.28857055 57.97609499 13.57294137 55.76054243 18.0390625 49.15625 C21.22261381 42.87788749 22.04846534 36.52069762 19.8828125 29.7734375 C16.86599213 23.37477222 12.26157696 19.63417071 5.66015625 17.1953125 C-1.35977007 15.93391949 -7.40948756 16.68681157 -13.43359375 20.59375 C-19.37934423 25.58915512 -20.92610563 31.353069 -21.78515625 38.875 C-22.33984375 41.1953125 -22.33984375 41.1953125 -25.33984375 43.1953125 C-25.42621094 42.3496875 -25.51257813 41.5040625 -25.6015625 40.6328125 C-26.61520102 32.44930882 -27.72956532 26.04980758 -34.24609375 20.6015625 C-40.29518093 16.65650565 -46.2823971 16.16650216 -53.33984375 17.1953125 C-60.21098245 19.22490627 -64.09216269 23.34214497 -67.65234375 29.4453125 C-69.57578924 37.13909447 -68.60628849 43.14766634 -64.76953125 50.0625 C-62.96063498 52.76101739 -61.10445672 54.49401221 -58.33984375 56.1953125 C-57.78941406 56.54335937 -57.23898438 56.89140625 -56.671875 57.25 C-53.37972877 58.58450484 -50.09547373 58.66126691 -46.58984375 58.8203125 C-45.89246094 58.85898438 -45.19507812 58.89765625 -44.4765625 58.9375 C-42.76473557 59.03129874 -41.05232693 59.11437424 -39.33984375 59.1953125 C-40.33984375 62.1953125 -40.33984375 62.1953125 -42.33984375 63.1953125 C-49.73377637 63.88920464 -56.31921784 63.89190035 -62.33984375 59.1953125 C-68.55446808 53.26819748 -72.48771981 48.35367751 -72.82177734 39.52270508 C-72.89093617 31.57037468 -72.05038883 26.0888041 -66.33984375 20.1953125 C-65.84871094 19.68613281 -65.35757813 19.17695312 -64.8515625 18.65234375 C-58.66203102 12.96331346 -52.57952229 11.54988058 -44.40625 11.78515625 C-36.70163979 12.81570921 -31.12254563 16.60891435 -26.3984375 22.64453125 C-25.33984375 24.1953125 -25.33984375 24.1953125 -24.33984375 26.1953125 C-24.33984375 19.5953125 -24.33984375 12.9953125 -24.33984375 6.1953125 C-15.54911115 2.28832024 -9.36098071 -0.13246823 0 0 Z " fill="#4E9A4D" transform="translate(136.33984375,51.8046875)"/>
<path d="M0 0 C6.86864871 3.78392624 10.70723574 8.54358223 13.171875 15.9375 C13.68823445 23.55380182 12.25290449 28.84568476 7.984375 35.1875 C2.64960431 40.40372023 -1.8279841 42.17881341 -9.328125 42.5 C-16.8535588 42.25583761 -20.99505541 39.84713904 -26.140625 34.5625 C-30.32902988 28.04720352 -31.89730068 22.67687396 -30.828125 14.9375 C-28.99392764 8.76891959 -25.17422881 4.42747213 -19.828125 0.9375 C-13.53115797 -2.07590006 -6.56465905 -2.46628075 0 0 Z " fill="#F6F6F6" transform="translate(97.828125,69.0625)"/>
<path d="M0 0 C5.87931789 3.19337951 9.28932402 6.94071086 12.1875 12.92578125 C12.6825 13.91578125 12.6825 13.91578125 13.1875 14.92578125 C14.21416307 22.55242121 12.69289928 28.67843762 8.1875 34.92578125 C1.66132145 41.07760921 -3.26969075 42.4103589 -12.1875 42.328125 C-17.61830174 41.72535282 -20.99770692 39.77297172 -24.8125 35.92578125 C-29.44082222 30.00375932 -31.57405298 24.54131105 -30.8125 16.92578125 C-29.07105593 9.96000496 -25.89537734 5.04409368 -19.8125 1.11328125 C-13.37758672 -2.20455581 -6.78240474 -2.59050181 0 0 Z " fill="#F6F6F6" transform="translate(144.8125,69.07421875)"/>
<path d="M0 0 C3 0 3 0 5 1 C5.72475888 2.54557014 6.40543585 4.11195908 7.0625 5.6875 C9.84267573 11.36165982 13.16368488 14.53923391 19 17 C22.35120166 17.69544436 25.58060669 17.98572278 29 18 C27.68 18.66 26.36 19.32 25 20 C27.31 20.33 29.62 20.66 32 21 C32 21.33 32 21.66 32 22 C30.29175867 22.02735618 28.58338595 22.04655506 26.875 22.0625 C25.92367187 22.07410156 24.97234375 22.08570312 23.9921875 22.09765625 C21 22 21 22 18.03125 21.19140625 C14.81076778 20.69989778 14.81076778 20.69989778 11.7890625 22.9296875 C10.71606407 23.89141202 9.66164137 24.87419315 8.625 25.875 C7.80708984 26.52662109 7.80708984 26.52662109 6.97265625 27.19140625 C4.99271386 28.93577881 4.99271386 28.93577881 3 33 C3 38.61 3 44.22 3 50 C-11.19 50 -25.38 50 -40 50 C-35.42857143 38.57142857 -35.42857143 38.57142857 -32 34 C-31.319375 33.030625 -30.63875 32.06125 -29.9375 31.0625 C-26.22355859 26.65949399 -21.00914277 23.72639333 -16 21 C-15.34 21 -14.68 21 -14 21 C-14.33 19.68 -14.66 18.36 -15 17 C-13.80375 16.525625 -12.6075 16.05125 -11.375 15.5625 C-6.22020641 13.00799305 -3.56676996 9.04472436 -1 4 C-0.33544855 1.82654493 -0.33544855 1.82654493 0 0 Z " fill="#83C466" transform="translate(110,93)"/>
<path d="M0 0 C3.36619207 2.40784558 5.73982931 5.27697863 8.1953125 8.5703125 C8.8553125 9.2303125 9.5153125 9.8903125 10.1953125 10.5703125 C10.6903125 9.7040625 11.1853125 8.8378125 11.6953125 7.9453125 C15.49359677 2.26135519 21.48732636 -2.06071074 28.1953125 -3.4296875 C35.53907942 -4.19757187 42.20127963 -3.10653932 48.3984375 1.046875 C54.37812022 5.8970621 57.75522882 10.38951753 58.5703125 18.1328125 C58.79832298 25.31514259 58.91333942 31.83004642 54.1953125 37.5703125 C45.70476122 46.30444517 45.70476122 46.30444517 39.6171875 46.765625 C38.29460937 46.73082031 38.29460937 46.73082031 36.9453125 46.6953125 C35.60726562 46.66824219 35.60726562 46.66824219 34.2421875 46.640625 C33.56671875 46.61742187 32.89125 46.59421875 32.1953125 46.5703125 C31.8653125 45.9103125 31.5353125 45.2503125 31.1953125 44.5703125 C31.8965625 44.42335937 32.5978125 44.27640625 33.3203125 44.125 C40.8237268 42.35109499 47.10809762 40.13554243 51.57421875 33.53125 C54.75777006 27.25288749 55.58362159 20.89569762 53.41796875 14.1484375 C50.40114838 7.74977222 45.79673321 4.00917071 39.1953125 1.5703125 C32.17538618 0.30891949 26.12566869 1.06181157 20.1015625 4.96875 C14.15581202 9.96415512 12.60905062 15.728069 11.75 23.25 C11.1953125 25.5703125 11.1953125 25.5703125 8.1953125 27.5703125 C8.10894531 26.7246875 8.02257812 25.8790625 7.93359375 25.0078125 C6.91995523 16.82430882 5.80559093 10.42480758 -0.7109375 4.9765625 C-6.76002468 1.03150565 -12.74724085 0.54150216 -19.8046875 1.5703125 C-26.6758262 3.59990627 -30.55700644 7.71714497 -34.1171875 13.8203125 C-36.04063299 21.51409447 -35.07113224 27.52266634 -31.234375 34.4375 C-29.42547873 37.13601739 -27.56930047 38.86901221 -24.8046875 40.5703125 C-24.25425781 40.91835937 -23.70382813 41.26640625 -23.13671875 41.625 C-19.84457252 42.95950484 -16.56031748 43.03626691 -13.0546875 43.1953125 C-12.35730469 43.23398438 -11.65992187 43.27265625 -10.94140625 43.3125 C-9.22957932 43.40629874 -7.51717068 43.48937424 -5.8046875 43.5703125 C-6.8046875 46.5703125 -6.8046875 46.5703125 -8.8046875 47.5703125 C-16.19862012 48.26420464 -22.78406159 48.26690035 -28.8046875 43.5703125 C-35.01931183 37.64319748 -38.95256356 32.72867751 -39.28662109 23.89770508 C-39.35577992 15.94537468 -38.51523258 10.4638041 -32.8046875 4.5703125 C-32.31355469 4.06113281 -31.82242188 3.55195312 -31.31640625 3.02734375 C-22.31708546 -5.24426915 -10.47965624 -5.89691267 0 0 Z " fill="#444844" transform="translate(102.8046875,67.4296875)"/>
<path d="M0 0 C4.43697889 2.43009921 7.14019281 4.56482712 9.8125 8.875 C10.625 12.75 10.625 12.75 10.8125 15.875 C9.61753906 16.03935547 9.61753906 16.03935547 8.3984375 16.20703125 C2.56753617 17.07953838 -1.91829482 18.17613881 -7.1875 20.875 C-9.76062277 20.73591228 -11.83043955 19.99784499 -14.25390625 19.1640625 C-15.01574219 18.90367188 -15.77757813 18.64328125 -16.5625 18.375 C-17.33207031 18.11074219 -18.10164063 17.84648438 -18.89453125 17.57421875 C-21.99009798 16.63025547 -24.97358866 16.21690546 -28.1875 15.875 C-27.96483271 10.41965134 -26.74966887 7.43893909 -22.98828125 3.453125 C-15.89146847 -2.76620767 -8.54509918 -3.91175651 0 0 Z " fill="#F7F7F7" transform="translate(121.1875,33.125)"/>
<path d="M0 0 C3 0 3 0 5 1 C5.72475888 2.54557014 6.40543585 4.11195908 7.0625 5.6875 C9.84267573 11.36165982 13.16368488 14.53923391 19 17 C22.35120166 17.69544436 25.58060669 17.98572278 29 18 C27.02 18.99 27.02 18.99 25 20 C27.31 20.33 29.62 20.66 32 21 C32 21.33 32 21.66 32 22 C30.29175867 22.02735618 28.58338595 22.04655506 26.875 22.0625 C25.92367187 22.07410156 24.97234375 22.08570312 23.9921875 22.09765625 C21 22 21 22 18.0234375 21.125 C15.10655328 20.7074033 15.10655328 20.7074033 13.43505859 22.04272461 C11.77705789 23.60490346 10.25817862 25.23037822 8.75 26.9375 C6.86411678 28.99587254 4.95586147 31.00607536 3 33 C1 33 1 33 -1.25 30.9375 C-3.87156889 28.24633194 -6.18252433 25.33073709 -8.47265625 22.35546875 C-10.15827851 20.55748668 -10.15827851 20.55748668 -14 21 C-14.33 19.68 -14.66 18.36 -15 17 C-13.80375 16.525625 -12.6075 16.05125 -11.375 15.5625 C-6.22020641 13.00799305 -3.56676996 9.04472436 -1 4 C-0.33544855 1.82654493 -0.33544855 1.82654493 0 0 Z " fill="#464745" transform="translate(110,93)"/>
<path d="M0 0 C3.81048864 0 5.97246785 0.20455523 9.0234375 2.56640625 C12.05175556 5.72450937 14.43928717 8.51685776 14.75 13 C14.31064092 17.63157693 12.06604623 21.5628008 9 25 C4.64886472 27.77963966 -0.00761839 27.90352919 -5 27 C-8.43087554 24.98837153 -11.20989367 22.58021267 -13 19 C-13.07033769 17.12620395 -13.0843022 15.24998898 -13.0625 13.375 C-13.05347656 12.37210938 -13.04445313 11.36921875 -13.03515625 10.3359375 C-13.02355469 9.56507812 -13.01195313 8.79421875 -13 8 C-12.34 7.67 -11.68 7.34 -11 7 C-10.01 8.485 -10.01 8.485 -9 10 C-5.5 10.41666667 -5.5 10.41666667 -2 10 C0.18331689 8.23863645 0.18331689 8.23863645 0.1953125 6.0546875 C0.17210937 5.33539063 0.14890625 4.61609375 0.125 3.875 C0.08375 2.59625 0.0425 1.3175 0 0 Z " fill="#454545" transform="translate(133,76)"/>
<path d="M0 0 C5.51255847 0.64099517 9.20890525 1.83833392 12.8125 6.1875 C14.65852525 10.55966506 14.87188605 14.52226733 13.30859375 18.96484375 C11.76158017 22.02650661 10.08402786 23.93942178 7.3125 25.9375 C3.06653626 27.2994129 -0.59075877 27.85187487 -5 27 C-8.85448174 24.93772951 -11.36770837 22.03973544 -13 18 C-13.265625 15.7109375 -13.265625 15.7109375 -13.25 13.375 C-13.25515625 12.59898438 -13.2603125 11.82296875 -13.265625 11.0234375 C-13 9 -13 9 -11 7 C-10.01 8.485 -10.01 8.485 -9 10 C-5.5 10.41666667 -5.5 10.41666667 -2 10 C0.18331689 8.23863645 0.18331689 8.23863645 0.1953125 6.0546875 C0.17210938 5.33539063 0.14890625 4.61609375 0.125 3.875 C0.08375 2.59625 0.0425 1.3175 0 0 Z " fill="#444444" transform="translate(91,76)"/>
<path d="M0 0 C4.10601848 1.77305344 6.66278175 4.19119988 9 8 C9.62741785 12.3134977 9.32346757 14.39927452 7.25 18.25 C3.86384459 22.38863439 2.57396695 23.82229405 -2.875 24.4375 C-7.1659538 24.26938427 -9.72018157 22.81127294 -13 20 C-15.54481052 15.8198645 -15.83428051 11.77439737 -15 7 C-11.42715914 0.59810672 -7.03618166 -0.74564546 0 0 Z " fill="#47B74E" transform="translate(88,167)"/>
<path d="M0 0 C4.09688557 1.76910968 6.8001254 4.10791418 9 8 C9.3478724 12.55547191 8.58414212 16.01947573 6.25 19.9375 C2.75976863 23.13687876 0.18157475 23.87340271 -4.5 24.375 C-8.64624123 23.93075987 -10.12207451 22.96015193 -13 20 C-15.50823073 15.77840038 -15.83944936 11.80397752 -15 7 C-11.42715914 0.59810672 -7.03618166 -0.74564546 0 0 Z " fill="#48B74E" transform="translate(41,167)"/>
<path d="M0 0 C2.59471854 3.89207781 2.3072327 7.176849 2.31884766 11.6940918 C2.32889328 12.5821048 2.3389389 13.4701178 2.34928894 14.38504028 C2.3802038 17.32309313 2.39717915 20.26105451 2.4140625 23.19921875 C2.43276747 25.2351816 2.45234037 27.27113664 2.4727478 29.30708313 C2.5241459 34.66805425 2.56373053 40.02905052 2.60089111 45.39013672 C2.64791281 51.82127615 2.70954348 58.25229002 2.76873779 64.68332672 C2.85704359 74.45550068 2.92674111 84.22764944 3 94 C28.41 94 53.82 94 80 94 C80.33 95.32 80.66 96.64 81 98 C54.27 98 27.54 98 0 98 C0 65.66 0 33.32 0 0 Z " fill="#3E3D3E" transform="translate(59,49)"/>
<path d="M0 0 C3.51483623 2.05032114 5.70332836 4.10998507 7 8 C7 9.65 7 11.3 7 13 C0.73 13 -5.54 13 -12 13 C-10.5 17 -10.5 17 -8 18 C-3.9417364 18.26466936 -1.55033423 17.90196476 2 16 C2.66 16.33 3.32 16.66 4 17 C3.69611836 19.93752254 3.19330344 20.84080893 0.875 22.75 C-2.83549338 24.36325799 -4.9826546 24.62338118 -9 24 C-12.26778393 21.87983067 -15.24076697 19.51846605 -17 16 C-17.53118173 12.20584481 -17.85089348 8.53668822 -15.953125 5.109375 C-11.29318995 -0.53736983 -6.9865004 -0.80317249 0 0 Z " fill="#48B74F" transform="translate(142,167)"/>
<path d="M0 0 C3.6072272 1.88641422 5.45641241 4.35160736 6.72265625 8.19140625 C7.45341572 12.38440474 7.24728941 14.50542118 5.3125 18.375 C0.52583587 23.80851064 0.52583587 23.80851064 -2.9609375 24.24609375 C-5.125 24.3125 -5.125 24.3125 -9 24 C-9.66 23.34 -10.32 22.68 -11 22 C-11 20.68 -11 19.36 -11 18 C-7.37 18 -3.74 18 0 18 C1.1845131 14.44646071 1.26641894 11.72986522 1 8 C0.01951062 5.93597315 0.01951062 5.93597315 -2 5 C-6.06705915 4.48115637 -6.06705915 4.48115637 -9.65551758 6.16333008 C-11.52831674 8.72172268 -11.43174049 10.61057532 -11.51171875 13.76171875 C-11.56489258 15.43911133 -11.56489258 15.43911133 -11.61914062 17.15039062 C-11.64169922 18.31763672 -11.66425781 19.48488281 -11.6875 20.6875 C-11.72166016 21.86634766 -11.75582031 23.04519531 -11.79101562 24.25976562 C-11.87357925 27.17308225 -11.94270322 30.08609466 -12 33 C-15.875 32.125 -15.875 32.125 -17 31 C-17.33747006 27.1131138 -17.32514983 23.21214291 -17.375 19.3125 C-17.41238281 18.22259766 -17.44976562 17.13269531 -17.48828125 16.00976562 C-17.58737882 6.96436008 -17.58737882 6.96436008 -14.6015625 3.29296875 C-10.07812444 -0.69390534 -5.87867096 -0.91826101 0 0 Z " fill="#4FB955" transform="translate(116,167)"/>
<path d="M0 0 C0.66 0 1.32 0 2 0 C2.11629782 4.39561039 2.18728634 8.79082429 2.25 13.1875 C2.30027344 15.05631836 2.30027344 15.05631836 2.3515625 16.96289062 C2.36445313 18.16494141 2.37734375 19.36699219 2.390625 20.60546875 C2.41157227 21.71043701 2.43251953 22.81540527 2.45410156 23.95385742 C1.89660973 27.69354863 0.59286334 29.30460426 -2 32 C-5.62543469 34.40023838 -8.53715574 34.32678504 -12.73828125 33.72265625 C-16.12384803 32.64091211 -17.87686522 30.92560695 -19.96875 28.1015625 C-21.78674468 24.3967097 -21.76597595 21.00259979 -21 17 C-19.37599816 13.36532921 -18.33886956 12.22591304 -15 10 C-12.80859375 9.76953125 -12.80859375 9.76953125 -10.4375 9.8125 C-9.65246094 9.81894531 -8.86742187 9.82539063 -8.05859375 9.83203125 C-6 10 -6 10 -4 11 C-4 12.32 -4 13.64 -4 15 C-4.62648437 14.97679687 -5.25296875 14.95359375 -5.8984375 14.9296875 C-6.71570313 14.91164062 -7.53296875 14.89359375 -8.375 14.875 C-9.59316406 14.84019531 -9.59316406 14.84019531 -10.8359375 14.8046875 C-13.21342243 14.78629949 -13.21342243 14.78629949 -15 17 C-15.318384 19.1398632 -15.318384 19.1398632 -15.25 21.5 C-15.25515625 22.2940625 -15.2603125 23.088125 -15.265625 23.90625 C-15.18939909 26.21892751 -15.18939909 26.21892751 -13 28 C-9.54230809 28.58342353 -9.54230809 28.58342353 -6 28 C-1.94779705 23.53507268 -2.51848127 18.00047001 -2.4375 12.3125 C-2.40314119 10.41258519 -2.36058045 8.51279545 -2.30859375 6.61328125 C-2.29626709 5.77579346 -2.28394043 4.93830566 -2.27124023 4.07543945 C-2 2 -2 2 0 0 Z " fill="#49B750" transform="translate(172,157)"/>
<path d="M0 0 C2.89683868 2.2015974 4.39297231 3.78594462 6 7 C6.07181821 9.71760108 6.09299506 12.40859388 6.0625 15.125 C6.05798828 15.87910156 6.05347656 16.63320312 6.04882812 17.41015625 C6.03703499 19.27347127 6.01909942 21.13674555 6 23 C2.125 22.125 2.125 22.125 1 21 C0.7547112 17.70222832 0.61574923 14.40541591 0.4765625 11.1015625 C0.24532464 8.04261073 0.24532464 8.04261073 -1.3515625 6.109375 C-3.94616135 4.36324686 -5.96474411 4.62059301 -9 5 C-11.01951062 5.93597315 -11.01951062 5.93597315 -12 8 C-12.50548595 12.6649851 -12.50548595 12.6649851 -10.875 16.9375 C-8.14015561 18.48724515 -6.0875593 18.32162076 -3 18 C-2.01 17.34 -1.02 16.68 0 16 C0 17.98 0 19.96 0 22 C-3.44474755 24.11984464 -5.99138262 24.62880273 -10 24 C-13.76769926 21.55253962 -16.56266217 19.3120135 -18 15 C-18.67195988 8.16840786 -18.67195988 8.16840786 -16.953125 5.1796875 C-12.11281587 -0.71410067 -7.30857958 -0.97025876 0 0 Z " fill="#4BB851" transform="translate(208,167)"/>
<path d="M0 0 C0.99 0 1.98 0 3 0 C3 5.94 3 11.88 3 18 C6.91191492 17.45925684 6.91191492 17.45925684 8.265625 15.37109375 C8.59046875 14.73300781 8.9153125 14.09492188 9.25 13.4375 C9.8275 12.303125 10.405 11.16875 11 10 C12.65 10 14.3 10 16 10 C14.8905928 13.48670834 13.73662334 16.77484237 12 20 C12.49113281 20.38800781 12.98226562 20.77601563 13.48828125 21.17578125 C15.50725753 23.61211696 15.30898805 25.06930672 15.1875 28.1875 C15.16042969 29.08855469 15.13335937 29.98960937 15.10546875 30.91796875 C15.07066406 31.60503906 15.03585938 32.29210937 15 33 C13.68 32.67 12.36 32.34 11 32 C10.34 29.36 9.68 26.72 9 24 C7.02 23.67 5.04 23.34 3 23 C3 26.3 3 29.6 3 33 C-1 32 -1 32 -2 31 C-2.21789186 26.88422411 -2.18579188 22.76535077 -2.18530273 18.64428711 C-2.18748734 16.57449736 -2.20563491 14.50524207 -2.22460938 12.43554688 C-2.22654297 11.13810547 -2.22847656 9.84066406 -2.23046875 8.50390625 C-2.23457764 7.30580322 -2.23868652 6.1077002 -2.24291992 4.87329102 C-2 2 -2 2 0 0 Z " fill="#50BA57" transform="translate(55,157)"/>
<path d="M0 0 C0 1.98 0 3.96 0 6 C2.64 6 5.28 6 8 6 C8 7.65 8 9.3 8 11 C5.36 11 2.72 11 0 11 C0.33 15.29 0.66 19.58 1 24 C3.31 24.33 5.62 24.66 8 25 C8 26.32 8 27.64 8 29 C6.39815374 29.1352403 4.79303374 29.23210847 3.1875 29.3125 C2.29417969 29.37050781 1.40085937 29.42851562 0.48046875 29.48828125 C-2 29 -2 29 -3.80078125 27.14453125 C-5.55398919 22.54735734 -5.43480695 18.25258869 -5.375 13.375 C-5.38660156 12.42109375 -5.39820313 11.4671875 -5.41015625 10.484375 C-5.40628906 9.56914062 -5.40242187 8.65390625 -5.3984375 7.7109375 C-5.39505371 6.87868652 -5.39166992 6.04643555 -5.38818359 5.18896484 C-4.81453911 1.95418721 -3.40868131 0 0 0 Z " fill="#4DB953" transform="translate(16,161)"/>
<path d="M0 0 C0.33 0 0.66 0 1 0 C1.08745946 3.3956697 1.14054444 6.79104773 1.1875 10.1875 C1.22520508 11.62706055 1.22520508 11.62706055 1.26367188 13.09570312 C1.35525196 21.91791764 1.35525196 21.91791764 -2 26 C-3 27 -3 27 -6.375 27.25 C-10 27 -10 27 -11.703125 25.765625 C-13.33825862 23.53947923 -13.40241352 22.24135228 -13.375 19.5 C-13.38273438 18.7265625 -13.39046875 17.953125 -13.3984375 17.15625 C-13 15 -13 15 -11.76953125 13.19921875 C-9.38902086 11.58593688 -8.11499616 11.86572525 -5.3125 12.3125 C-3.1778125 12.6528125 -3.1778125 12.6528125 -1 13 C-0.67 8.71 -0.34 4.42 0 0 Z " fill="#ECF7ED" transform="translate(169,159)"/>
<path d="M0 0 C3 0.5 3 0.5 5.375 2.0625 C7.62340519 5.43510779 7.56783945 7.52512383 7 11.5 C5.4375 13.9375 5.4375 13.9375 3 15.5 C-2.97058824 16.01470588 -2.97058824 16.01470588 -6 14.5 C-6.33 15.82 -6.66 17.14 -7 18.5 C-7.10823773 16.25106046 -7.18569645 14.00062425 -7.25 11.75 C-7.29640625 10.49703125 -7.3428125 9.2440625 -7.390625 7.953125 C-7 4.5 -7 4.5 -5.171875 2.078125 C-3 0.5 -3 0.5 0 0 Z " fill="#F3FAF3" transform="translate(111,170.5)"/>
<path d="M0 0 C2.171875 1.640625 2.171875 1.640625 4 4 C4.390625 7.015625 4.390625 7.015625 4.25 10.25 C4.21390625 11.32765625 4.1778125 12.4053125 4.140625 13.515625 C4.07101563 14.74539062 4.07101563 14.74539062 4 16 C3.34 15.01 2.68 14.02 2 13 C1.34 13.66 0.68 14.32 0 15 C-3.55600891 15.46382725 -5.34990088 15.42769679 -8.375 13.4375 C-10.62340519 10.06489221 -10.56783945 7.97487617 -10 4 C-7.26646839 -0.10029741 -4.80388991 -0.80064832 0 0 Z " fill="#F5FBF5" transform="translate(205,171)"/>
<path d="M0 0 C3.4375 1 3.4375 1 5.375 2.6875 C6.77567538 5.73602877 6.9217732 7.67926952 6.4375 11 C4.875 13.375 4.875 13.375 2.4375 15 C-1.125 15.5 -1.125 15.5 -4.5625 15 C-7.41826764 12.69696158 -7.54431881 11.14544949 -8 7.5 C-7.5625 4 -7.5625 4 -6 1.5 C-3.5625 0 -3.5625 0 0 0 Z " fill="#F5FBF6" transform="translate(85.5625,171)"/>
<path d="M0 0 C3.4375 1.0625 3.4375 1.0625 5.4375 3.25 C6.66667707 6.7070605 6.5006832 8.56918376 5.4375 12.0625 C4.3125 13.9375 4.3125 13.9375 2.4375 15.0625 C-0.94568857 15.42498449 -3.43034865 15.64683618 -6.5 14.0625 C-8.22410604 10.81712393 -8.18663468 7.59453487 -7.5625 4.0625 C-5.33101684 0.40286762 -4.3001562 0.07544134 0 0 Z " fill="#F6FBF6" transform="translate(38.5625,170.9375)"/>
<path d="M0 0 C3.4375 2 3.4375 2 6 4 C4.60249952 7.15835107 2.94801766 9.32272825 0.5 11.75 C-0.1084375 12.36359375 -0.716875 12.9771875 -1.34375 13.609375 C-3 15 -3 15 -5 15 C-6.7265625 13.390625 -6.7265625 13.390625 -8.625 11.25 C-9.25664063 10.55390625 -9.88828125 9.8578125 -10.5390625 9.140625 C-12 7 -12 7 -12 3 C-8.17623434 -0.24440723 -4.89476638 -0.60111166 0 0 Z " fill="#F1C16A" transform="translate(116,107)"/>
<path d="M0 0 C0 0.33 0 0.66 0 1 C-0.78375 1.0825 -1.5675 1.165 -2.375 1.25 C-5.14749104 1.72806339 -5.14749104 1.72806339 -6.3125 4.0625 C-6.539375 4.701875 -6.76625 5.34125 -7 6 C-7.66 6 -8.32 6 -9 6 C-9.05422947 7.4370809 -9.09289723 8.87475462 -9.125 10.3125 C-9.15980469 11.51326172 -9.15980469 11.51326172 -9.1953125 12.73828125 C-9.15817322 15.28388576 -9.15817322 15.28388576 -7 18 C-3.93443402 18.73343428 -3.93443402 18.73343428 -1 19 C-1.99 19.99 -2.98 20.98 -4 22 C-2.35 22.33 -0.7 22.66 1 23 C1 23.33 1 23.66 1 24 C-5.05761794 24.41776675 -8.19025097 24.12264203 -13 20 C-15.54481052 15.8198645 -15.83428051 11.77439737 -15 7 C-11.17178736 0.14052605 -7.17559052 -0.11573533 0 0 Z " fill="#51BA57" transform="translate(88,167)"/>
<path d="M0 0 C0 0.33 0 0.66 0 1 C-1.65 1.33 -3.3 1.66 -5 2 C-5.33 2.99 -5.66 3.98 -6 5 C-6.515625 5.391875 -7.03125 5.78375 -7.5625 6.1875 C-9.99485525 9.25438271 -9.30311638 12.18073362 -9 16 C-6.4345406 18.5654594 -4.52313332 18.54046087 -1 19 C-1.99 19.99 -2.98 20.98 -4 22 C-3.01 22.66 -2.02 23.32 -1 24 C-5.03645882 24.31658501 -7.32333195 24.4210379 -10.8125 22.25 C-14.00422219 18.96708575 -15.30079451 16.20865473 -15.4375 11.625 C-15.37412829 8.13379495 -14.84329291 6.20906567 -12.625 3.5 C-8.30081107 -0.61827517 -5.763356 -0.09295735 0 0 Z " fill="#50BA56" transform="translate(41,167)"/>
<path d="M0 0 C1.65 0 3.3 0 5 0 C5 7.59 5 15.18 5 23 C3.68 22.67 2.36 22.34 1 22 C-0.20029908 19.59940183 -0.11459743 18.10639351 -0.09765625 15.4296875 C-0.09443359 14.53378906 -0.09121094 13.63789063 -0.08789062 12.71484375 C-0.07951172 11.77769531 -0.07113281 10.84054688 -0.0625 9.875 C-0.05798828 8.93011719 -0.05347656 7.98523438 -0.04882812 7.01171875 C-0.03702357 4.67441613 -0.02055759 2.33723939 0 0 Z " fill="#49B750" transform="translate(180,167)"/>
<path d="M0 0 C0.33 0 0.66 0 1 0 C1.33 1.98 1.66 3.96 2 6 C2.66 4.68 3.32 3.36 4 2 C4.33 2 4.66 2 5 2 C5.18175781 2.84884766 5.18175781 2.84884766 5.3671875 3.71484375 C5.53476563 4.44832031 5.70234375 5.18179688 5.875 5.9375 C6.03742188 6.66839844 6.19984375 7.39929688 6.3671875 8.15234375 C6.82961523 10.20700294 6.82961523 10.20700294 9 11 C13.05142119 11.25860135 14.54337669 11.30441554 18 9 C18 10.98 18 12.96 18 15 C14.55525245 17.11984464 12.00861738 17.62880273 8 17 C4.23230074 14.55253962 1.43733783 12.3120135 0 8 C-0.12781786 5.32605036 -0.04391871 2.67904143 0 0 Z " fill="#52BB59" transform="translate(190,174)"/>
<path d="M0 0 C0 4.29 0 8.58 0 13 C-7.23214286 7.10714286 -7.23214286 7.10714286 -9 3 C-5.59353476 -0.0279691 -4.9819505 0 0 0 Z " fill="#F9F2AC" transform="translate(112,108)"/>
<path d="M0 0 C6.27 0 12.54 0 19 0 C19 0.33 19 0.66 19 1 C17.88625 1.12375 17.88625 1.12375 16.75 1.25 C13.87025485 1.77783918 13.87025485 1.77783918 12.0625 4.0625 C10 6 10 6 7 6.4375 C3.72629784 5.9600851 2.28366916 5.37150259 0 3 C0 2.01 0 1.02 0 0 Z " fill="#ECF7ED" transform="translate(130,180)"/>
<path d="M0 0 C0.66 0 1.32 0 2 0 C2 5.61 2 11.22 2 17 C1.67 17 1.34 17 1 17 C0.67 12.71 0.34 8.42 0 4 C-0.33 12.91 -0.66 21.82 -1 31 C-1.33 31 -1.66 31 -2 31 C-2.04939115 26.90661348 -2.08571501 22.81334202 -2.10986328 18.71972656 C-2.11992877 17.32679219 -2.13358234 15.93387898 -2.15087891 14.54101562 C-2.1751022 12.5404564 -2.18540814 10.53974385 -2.1953125 8.5390625 C-2.20578613 7.33459473 -2.21625977 6.13012695 -2.22705078 4.88916016 C-2 2 -2 2 0 0 Z " fill="#4BB951" transform="translate(55,157)"/>
<path d="M0 0 C-1.46966358 3.39859703 -3.38037514 5.64963709 -6 8.25 C-6.70125 8.95640625 -7.4025 9.6628125 -8.125 10.390625 C-10 12 -10 12 -12 12 C-12.66 10.68 -13.32 9.36 -14 8 C-12.948125 7.690625 -12.948125 7.690625 -11.875 7.375 C-8.59689751 5.80721185 -6.80962056 3.93086863 -4.4296875 1.2421875 C-3 0 -3 0 0 0 Z " fill="#454541" transform="translate(123,114)"/>
<path d="M0 0 C3.125 0.25 3.125 0.25 5 1.625 C6.125 3.25 6.125 3.25 6.125 5.25 C2.165 5.25 -1.795 5.25 -5.875 5.25 C-3.39772727 0.29545455 -3.39772727 0.29545455 0 0 Z " fill="#EAF6EB" transform="translate(136.875,170.75)"/>
<path d="M0 0 C-1.17578125 1.984375 -1.17578125 1.984375 -3 4 C-5.48046875 4.390625 -5.48046875 4.390625 -8.1875 4.25 C-9.08855469 4.21390625 -9.98960937 4.1778125 -10.91796875 4.140625 C-11.60503906 4.09421875 -12.29210937 4.0478125 -13 4 C-13.33 3.34 -13.66 2.68 -14 2 C-12.23225581 1.46877637 -10.46065917 0.95035927 -8.6875 0.4375 C-7.70136719 0.14746094 -6.71523437 -0.14257812 -5.69921875 -0.44140625 C-3 -1 -3 -1 0 0 Z " fill="#404040" transform="translate(148,110)"/>
<path d="M0 0 C2.33944736 0.28730055 4.6739143 0.61936779 7 1 C7 2.32 7 3.64 7 5 C4.36 4.67 1.72 4.34 -1 4 C-1 1 -1 1 0 0 Z " fill="#42B549" transform="translate(161,167)"/>
<path d="M0 0 C2.31 1.98 4.62 3.96 7 6 C6.01 6.99 5.02 7.98 4 9 C2.02 6.69 0.04 4.38 -2 2 C-1.34 2 -0.68 2 0 2 C0 1.34 0 0.68 0 0 Z " fill="#575E4D" transform="translate(104,114)"/>
<path d="M0 0 C1.31571603 0.2547514 2.62760376 0.52934141 3.9375 0.8125 C4.66839844 0.96332031 5.39929688 1.11414063 6.15234375 1.26953125 C6.76207031 1.51058594 7.37179688 1.75164062 8 2 C8.33 2.99 8.66 3.98 9 5 C6.36 5 3.72 5 1 5 C0.67 3.35 0.34 1.7 0 0 Z " fill="#3FB446" transform="translate(105,185)"/>
<path d="M0 0 C0.99 0 1.98 0 3 0 C3.29296875 6.0546875 3.29296875 6.0546875 3 8 C2.01 8.66 1.02 9.32 0 10 C0 6.7 0 3.4 0 0 Z " fill="#3C3C3C" transform="translate(111,85)"/>
<path d="M0 0 C1.65 0 3.3 0 5 0 C5 1.65 5 3.3 5 5 C3.35 4.67 1.7 4.34 0 4 C0 2.68 0 1.36 0 0 Z " fill="#4CB953" transform="translate(180,160)"/>
<path d="M0 0 C0.66 0 1.32 0 2 0 C2 5.61 2 11.22 2 17 C1.67 17 1.34 17 1 17 C0.93941406 16.09636719 0.87882812 15.19273437 0.81640625 14.26171875 C0.73261719 13.08222656 0.64882813 11.90273437 0.5625 10.6875 C0.48128906 9.51574219 0.40007813 8.34398437 0.31640625 7.13671875 C0.1132629 3.97409042 0.1132629 3.97409042 -1 1 C-0.67 0.67 -0.34 0.34 0 0 Z " fill="#40B447" transform="translate(55,157)"/>
<path d="M0 0 C-0.33 0.99 -0.66 1.98 -1 3 C-3.64 3 -6.28 3 -9 3 C-9.33 2.34 -9.66 1.68 -10 1 C-6.59437148 0.22157062 -3.49234244 -0.09978121 0 0 Z " fill="#3E3D3E" transform="translate(97,111)"/>
<path d="M0 0 C1.5 1.375 1.5 1.375 3 3 C3 3.66 3 4.32 3 5 C1.35 5 -0.3 5 -2 5 C-1.34 3.35 -0.68 1.7 0 0 Z " fill="#508C4C" transform="translate(112,100)"/>
</svg>
